<?xml version="1.0" encoding="utf-8"?>
<svg version="1.1" id="Layer_1" xmlns="http://www.w3.org/2000/svg" xmlns:xlink="http://www.w3.org/1999/xlink" x="0px" y="0px"
	 viewBox="0 0 792 792" enable-background="new 0 0 792 792" xml:space="preserve">
<rect fill="#C4272C" stroke="#000000" stroke-miterlimit="10" width="792" height="792"/>
<g>
	<g>
		<path fill="#E6C582" d="M509.1,639.7c40,11.9,80.1,23.2,120.2,34.4c13.3,3.7,26.4,7.8,39.7,11.6c2.7,0.8,4.7,2.4,6.4,4.4
			c20.5,23.5,41,47.2,61.5,70.8c7.8,9,15.7,18.1,23.5,27.1c1.1,1.2,2.7,2.1,2.6,4c-115,0-230,0-345,0c-0.1-0.8-0.3-1.6-0.4-2.5
			c-2.6-13.2-6.3-26.1-7.8-39.5c3.1-4.4,6.1-9,9.5-13.3c5.7-7.2,10-15.5,16.9-21.9c1.7,0.2,2.4,1.5,3.3,2.7
			c9.4,13,18.2,26.5,26.9,40c0.8,1.2,1,3.2,2.9,3c2-0.3,2.2-2.3,2.7-3.8c5.1-18.9,11.6-37.4,17.7-55.9
			C496.2,680.5,502.6,660,509.1,639.7z"/>
		<path fill="#E6C582" d="M27,792c3.8-6.7,9.5-11.9,14.4-17.6c24.3-28.3,48.9-56.3,73.3-84.5c2.2-2.6,4.9-3.8,8-4.6
			c51.3-14.2,102.5-28.4,153.8-42.6c1.1-0.3,2.2-0.7,3.3-1.1c4,6.8,5.3,14.6,7.7,22c10.4,31.4,21,62.7,30.5,94.4
			c0.3,1.1,0.4,2.4,1.8,2.7c1.5,0.2,1.9-1.1,2.5-2c5.4-8.2,10.5-16.5,16.2-24.5c4.9-6.8,8.8-14.5,15.2-20.1
			c8.7,11.3,15.3,24,24.3,35.1c-1.6,7.4-3.5,14.7-5.6,22c-2,6.9-4.9,13.7-5.4,21C253.7,792,140.3,792,27,792z"/>
		<path fill="#DB6689" d="M367,792c0.5-7.3,3.4-14.1,5.4-21c2.1-7.3,4.1-14.6,5.6-22c10.7-2.9,21.3-3.1,31.7,1
			c1.5,13.4,5.2,26.3,7.8,39.5c0.2,0.8,0.3,1.6,0.4,2.5C401,792,384,792,367,792z"/>
		<path fill="#EFC1AE" d="M317.1,569.1c-10.3-10.7-20.5-21.3-28.6-33.8c-14.2-21.9-24.5-45.5-27.9-71.4c-1.2-8.9-4.3-12.1-12.4-14.5
			c-21.1-6.3-32.3-21.8-36.1-43c-2.1-11.7-2.5-23.5,1-35.1c3.5-11.7,9.8-16.2,21.9-16.3c2,0,4,0,6,0c3.2,1.4,6.5,2.8,9.7,4.2
			c2.4,2.5,1.4,7.9,6,8.4c3.6,0.4,3.4,2.4,3.1,4.8c-0.6,6.9-0.2,13.7,1.4,20.4c3.3,14.8,10.2,27.4,24.4,34.1
			c39.7,18.7,84.9-9,82.3-53.5c-0.3-6-0.1-12-0.3-18c-0.1-3.4,1.5-5.2,4.5-6.3c7.4-2.6,14.9-3.5,22.6-1.7
			c10.1,2.3,10.8,3.2,11.1,13.6c0.1,3,0.1,6-0.2,9c-2.6,25.8,9.7,47.7,32.8,58.6c27.3,12.9,58.1,2.5,69.8-23.8
			c4.6-10.4,6.1-21.4,5-32.7c-0.2-1.6-1.8-4.8,1.7-4.4c4.7,0.6,5.6-2.5,6.8-5.6c2.5-2.8,4.6-6.2,8.7-7.1c3.5,0.4,6.9-0.1,10.4,0.6
			c8.8,1.7,13.9,7.4,15.7,15.5c4.4,19.3,3.7,38.3-6.4,56c-6.6,11.5-16.5,19.3-29.1,22.8c-7.6,2.1-10.8,5.3-11.8,13.6
			c-3,23.7-11.8,45.5-24.3,65.8c-4.4,7.1-8.9,14-14.2,20.4c-1.1,1.3-1.8,2.8-2.1,4.5c-1.9-0.3-3.3,0.5-4.3,1.9
			c-8.6,12.1-20.8,18.8-34.5,23c-18.6,5.7-37.7,8.1-57.3,6.1c-13.2-1.3-26.2-3.3-38.6-8.3C328.4,574.5,322.8,571.7,317.1,569.1z"/>
		<path fill="#464540" d="M250.8,359.1c-3.2-1.4-6.5-2.8-9.7-4.2c-5.4-19-11.5-37.8-14.7-57.5c-4.3-26.7-5.5-53.3,2-79.7
			c10.7-38.1,35.8-63.4,71.2-79.3c31.3-14,64-21.3,98.5-19.3c21.1,1.2,41.3,5.3,58.3,19.1c3.8,3.1,7.3,6.4,9.9,10.5
			c2.1,3.2,3.8,3.4,6.6,0.8c5.9-5.7,12.7-8.7,21.2-7.1c-0.3,2.1-2,1.9-3,2.3c-3.9,1.7-7.1,4.3-9.8,7.6c-5.2,6.4-4.8,8,2.9,10.3
			c42.6,12.9,61.9,43,63.8,84.8c1.6,34.9-6.9,68.3-16.1,101.6c-0.5,1.9-0.8,3.9-1.2,5.8c-4.1,0.9-6.1,4.3-8.7,7.1
			c-2.4-0.3-2.3-2.4-3.1-4c-1.1-2.3,0.4-5.5-2.6-7c0-5.7,0-11.3,0-17c2.5-2.4,2.9-4.8-0.2-7c-0.8-6.6,0.7-13.3-1.1-19.9
			c-4-14.2-10.1-27.5-16.8-40.6c-5.1-9.9-10.6-19.7-17-28.8c-1.7-2.4-3.6-4.5-6.9-1.8c-10.4,8.5-22.7,12.4-35.8,14.1
			c-17.8,2.4-35.8,4.1-52.9,9.9c-8.9,3-18.3,5.3-25.8,11.6c-7.4,6.2-10.6,14.7-12.8,23.8c-0.8,3.3-2.1,3.7-4.8,2.1
			c-6-3.3-10.6-8-14-13.9c-10.1-17.5-14-35.9-7.3-55.6c1.1-3.2-0.1-4.6-3.4-4.8c-7.6-0.4-14.5,1.3-20.8,5.7
			c-8.5,6-14.8,13.7-20,22.7c-7.8,13.6-12.1,28.4-15.6,43.5c-1.1,0.5-1.4,1.1-0.3,1.9c-0.5,5.9-1.2,11.9-1.4,17.8
			c-0.3,13.8-0.4,27.5-0.6,41.3C255.8,356.1,254,359.5,250.8,359.1z"/>
		<path fill="#EBBDA9" d="M310.9,610c3.4-3.8,2.1-8.7,3-13.1c0.9-4.6,1.2-9.3,1.8-14c17.9,11.1,35.3,23,54.8,31.3
			c8.8,3.8,17.8,7.4,27.4,5.4c14.1-2.8,26.9-9.2,39.6-15.7c12.7-6.4,23.8-15,34.6-24c1.9,8.2,2.7,16.5,3.8,24.8c0.2,2,0.4,4,2.1,5.3
			c-1.2,3.2-1.1,6.6-1,9.9c-1.3,1.5-2.6,3-4,4.4c-17.5,17.6-35.1,35.1-52.6,52.6c-1.8,1.8-3.8,3.4-3.7,6.2c-1.5-0.7-3-1.3-4.7-1.3
			c-12.9,0.1-25.9,0.2-38.8,0.2c-13.3-13.5-26.6-26.9-39.9-40.4c-7.5-7.6-14.9-15.2-22.3-22.8C313.2,616,311,613,310.9,610z"/>
		<path fill="#EEE1B7" d="M416.7,683.3c0-2.8,1.9-4.4,3.7-6.2c17.5-17.5,35.1-35.1,52.6-52.6c1.4-1.4,2.7-3,4-4.4
			c4.2-1.9,7.2-4.8,9-9c7.4,6.6,12.7,15,18.7,22.8c1.5,1.9,3.7,3.3,4.3,5.9c-6.5,20.4-12.9,40.8-19.5,61.1
			c-6.1,18.6-12.6,37-17.7,55.9c-0.4,1.5-0.7,3.6-2.7,3.8c-1.9,0.3-2.1-1.8-2.9-3c-8.8-13.5-17.5-27-26.9-40
			c-0.9-1.2-1.6-2.6-3.3-2.7c0.5-2.4-0.8-4.1-2.1-5.9C428.2,700.4,422.5,691.8,416.7,683.3z"/>
		<path fill="#EEE1B7" d="M311,619c7.4,7.6,14.8,15.2,22.3,22.8c13.3,13.5,26.6,27,39.9,40.4c-5.6,8.6-11.3,17.2-16.9,25.9
			c-1.2,1.8-2.7,3.4-2.6,5.8c-6.4,5.7-10.3,13.3-15.2,20.1c-5.7,8-10.8,16.3-16.2,24.5c-0.6,0.9-1,2.3-2.5,2
			c-1.4-0.2-1.5-1.5-1.8-2.7c-9.5-31.7-20.1-63-30.5-94.4c-2.4-7.4-3.7-15.2-7.7-22c0.8-4.8,4.6-7.6,7.3-11.1
			c4.8-6.3,9.9-12.4,14.9-18.6C305.7,613.3,306.7,618.3,311,619z"/>
		<path fill="#DFA38A" d="M472.2,579.9c-10.8,9.1-22,17.6-34.6,24c-12.7,6.5-25.6,12.9-39.6,15.7c-9.6,1.9-18.6-1.6-27.4-5.4
			c-19.4-8.4-36.9-20.2-54.8-31.3c0.5-4.6,0.9-9.2,1.4-13.9c5.7,2.6,11.3,5.5,17.1,7.8c12.4,5,25.4,6.9,38.6,8.3
			c19.6,2,38.6-0.4,57.3-6.1c13.7-4.2,26-10.9,34.5-23c1-1.5,2.4-2.2,4.3-1.9C469.2,562.8,472.2,571.2,472.2,579.9z"/>
		<path fill="#D9CFC8" d="M486,611c-1.8,4.2-4.8,7.2-9,9c-0.1-3.4-0.2-6.7,1-9.9C480.7,610.4,483.5,609.1,486,611z"/>
		<path fill="#D7D1CB" d="M311,619c-4.3-0.7-5.3-5.7-9-7.1c2.4-3.5,6-1.2,9-1.9C311,613,313.2,616,311,619z"/>
		<path fill="#D16B84" d="M353.7,713.9c-0.1-2.4,1.4-4,2.6-5.8c5.6-8.6,11.3-17.2,16.9-25.9c12.9-0.1,25.9-0.1,38.8-0.2
			c1.7,0,3.2,0.6,4.7,1.3c5.8,8.6,11.5,17.1,17.3,25.7c1.2,1.8,2.5,3.5,2.1,5.9c-6.8,6.4-11.2,14.6-16.9,21.9
			c-3.4,4.3-6.3,8.8-9.5,13.3c-10.5-4.1-21.1-4-31.7-1C369,737.9,362.4,725.2,353.7,713.9z"/>
		<path fill="#4F4541" d="M250.8,359.1c3.2,0.4,5.1-3,8.1-3.1c3.1,3,4.6,0.8,6-1.8c3.3-6.5,8.5-11.1,15-14.2
			c14.8-7.2,30.4-9.4,46.7-7.4c14.8,1.8,26.9,8.1,35.3,20.8c0.2,0.3,0.8,0.4,1.2,0.6c2.7-9.1,10.7-13.8,23.2-13.8
			c13.5,0,21.5,4.6,24.3,14.2c1.4-0.2,1.6-1.6,2.2-2.5c5.7-8.6,13.6-14,23.4-16.9c12.5-3.7,25.3-4.4,38-1.5
			c14.2,3.3,28.3,7.4,35.5,22.1c0.8,1.7,2.6,1.9,4.4,1.5c1.8-0.4,2.3-1.7,2.3-3.3c0-1,0.1-2,0.1-3c2.9,1.6,1.5,4.8,2.6,7
			c0.8,1.6,0.7,3.7,3.1,4c-1.2,3.1-2.1,6.2-6.8,5.6c-3.5-0.4-1.9,2.8-1.7,4.4c1.1,11.4-0.4,22.4-5,32.7
			c-11.7,26.3-42.5,36.7-69.8,23.8c-23.1-10.9-35.4-32.8-32.8-58.6c0.3-3,0.3-6,0.2-9c-0.3-10.4-1-11.3-11.1-13.6
			c-7.7-1.8-15.2-0.9-22.6,1.7c-3.1,1.1-4.6,2.9-4.5,6.3c0.2,6-0.1,12,0.3,18c2.6,44.5-42.6,72.2-82.3,53.5
			c-14.2-6.7-21.1-19.3-24.4-34.1c-1.5-6.7-1.9-13.5-1.4-20.4c0.2-2.4,0.4-4.4-3.1-4.8C252.1,367,253.2,361.6,250.8,359.1z
			 M315.5,335.8c-12.7-0.2-24,3.2-34.8,8.3c-7.6,3.6-12.6,9.7-14.8,17.9c-2.5,9.3-2.6,18.7-0.9,28.2c5.1,29.1,27,41.7,53,39.1
			c26.1-2.7,45.4-25.1,45.7-52.2c0.2-19.3-9.6-32.6-28.1-38.2C328.8,336.9,322,335.6,315.5,335.8z M509.5,382.6
			c0-27.3-8.2-38-30.3-43.7c-11.4-2.9-22.8-3.9-34.6-2c-16.8,2.7-29.6,13.1-33.3,27.6c-7,27.3,8.9,55.5,36.1,62.7
			c19.2,5.1,36.9,2.2,50.5-13.4C506.7,403.8,509.5,391.3,509.5,382.6z"/>
		<path fill="#EEC1AD" d="M516.3,351c0,1-0.1,2-0.1,3c0,1.7-0.5,2.9-2.3,3.3c-1.8,0.4-3.5,0.2-4.4-1.5
			c-7.2-14.8-21.3-18.8-35.5-22.1c-12.7-3-25.5-2.3-38,1.5c-9.7,2.9-17.7,8.3-23.4,16.9c-0.6,0.9-0.8,2.2-2.2,2.5
			c-2.8-9.6-10.8-14.3-24.3-14.2c-12.5,0-20.6,4.8-23.2,13.8c-0.4-0.2-1-0.3-1.2-0.6c-8.4-12.7-20.6-19-35.3-20.8
			c-16.2-2-31.9,0.3-46.7,7.4c-6.4,3.1-11.6,7.7-15,14.2c-1.3,2.6-2.9,4.8-6,1.8c0.2-13.8,0.2-27.5,0.6-41.3
			c0.1-5.9,0.9-11.9,1.4-17.8c0.5-0.6,0.7-1.2,0.3-1.9c3.6-15.1,7.8-29.9,15.6-43.5c5.1-9,11.5-16.7,20-22.7
			c6.3-4.4,13.2-6,20.8-5.7c3.3,0.2,4.5,1.6,3.4,4.8c-6.6,19.7-2.8,38.1,7.3,55.6c3.4,5.9,7.9,10.6,14,13.9c2.8,1.5,4.1,1.1,4.8-2.1
			c2.1-9,5.4-17.5,12.8-23.8c7.5-6.3,16.8-8.6,25.8-11.6c17.1-5.8,35.1-7.5,52.9-9.9c13-1.7,25.4-5.6,35.8-14.1
			c3.3-2.7,5.2-0.6,6.9,1.8c6.4,9.1,11.9,18.9,17,28.8c6.7,13.1,12.8,26.4,16.8,40.6c1.8,6.6,0.3,13.3,1.1,19.9
			c0.1,2.3,0.1,4.7,0.2,7C516.3,339.7,516.3,345.3,516.3,351z"/>
		<path fill="#4F4541" d="M516.3,334c-0.1-2.3-0.1-4.7-0.2-7C519.2,329.3,518.9,331.6,516.3,334z"/>
		<path fill="#4F4541" d="M261.1,295c0.3,0.7,0.2,1.4-0.3,1.9C259.7,296.1,260.1,295.5,261.1,295z"/>
		<path fill="#EEC1AD" d="M315.5,335.8c6.5-0.2,13.3,1.1,20,3.1c18.5,5.5,28.4,18.9,28.1,38.2c-0.3,27-19.6,49.5-45.7,52.2
			c-25.9,2.7-47.8-10-53-39.1c-1.7-9.5-1.6-18.9,0.9-28.2c2.2-8.2,7.2-14.3,14.8-17.9C291.6,339,302.8,335.6,315.5,335.8z"/>
		<path fill="#EDC0AD" d="M509.5,382.6c-0.1,8.7-2.8,21.2-11.6,31.3c-13.7,15.6-31.4,18.5-50.5,13.4c-27.2-7.2-43.1-35.4-36.1-62.7
			c3.7-14.5,16.5-24.9,33.3-27.6c11.7-1.9,23.2-1,34.6,2C501.3,344.6,509.5,355.3,509.5,382.6z"/>
	</g>
</g>
</svg>
