<?xml version="1.0" encoding="utf-8"?>
<!-- Generator: Adobe Illustrator 24.0.1, SVG Export Plug-In . SVG Version: 6.00 Build 0)  -->
<svg version="1.1" id="Layer_1" xmlns="http://www.w3.org/2000/svg" xmlns:xlink="http://www.w3.org/1999/xlink" x="0px" y="0px"
	 viewBox="0 0 100 100" enable-background="new 0 0 100 100" xml:space="preserve">
	<svg version="1.1" id="Layer_1" xmlns="http://www.w3.org/2000/svg" xmlns:xlink="http://www.w3.org/1999/xlink" x="25px" y="0px"
		viewBox="0 0 100 100" enable-background="new 0 0 100 100" xml:space="preserve" width="50px">
	<g>
		<g id="Icon_5_">
			<g>
				<path fill-rule="evenodd" clip-rule="evenodd" fill="#F4B01A" d="M71.63,42.22c-11.36-9.98-4.3-0.03-4.3-0.03
					S83.56,62,68.79,75.69c-7.78,7.21-23.15,3.83-31.19-0.5c-5.46-2.95-10.13-9.58-11.75-16.74c-1.91-8.43-1.02-17.11-2.22-17.05
					c-2.22,0.11-2.91,1.56-3.12,8.81C20.3,57.45,20,76.62,42.59,83.86c24.12,7.74,33.74-7.64,35.52-12.85
					C82.21,58.95,76.64,46.61,71.63,42.22z M51.91,43.74c0,0,3.78-1.61-3.91-1.69c-7.87-0.09-10.92-4.66-11.46-10.53
					c-0.53-5.75,1.42-12.61,8.53-13.94c5.18-0.97,9.9,4.02,11.34,10.56c1.34,6.1-0.46,13.74,0.45,14.12
					c1.89,0.78,5.05-5.77,3.87-16.17c-1.15-10.19-9.2-14.14-17.42-11.58c-9.58,2.99-16.66,14.62-9.88,24.66
					C40.43,49.49,51.91,43.74,51.91,43.74z"/>
			</g>
		</g>
		<g id="Inside_Icon_5_">
			<g>
				<path fill-rule="evenodd" clip-rule="evenodd" fill="#BD2327" d="M64.14,52.24c-0.75-1.08-1.99-1.45-1.78,0.48
					c0,0,1.72,5.83,0.28,10.41c-1.45,4.58-4.01,6.67-5.98,8.47c-1.29,1.18,1.37,1.07,3.98,0.22c1.9-0.62,5.55-1.8,6.58-9.09
					C68.19,55.86,64.89,53.32,64.14,52.24z M52.5,72.9c-2.26-1.06-4.97-3.33-4.74-10.67c0.23-7.23,9.86-10.46,9.86-10.46
					c2.47-0.54,2.54-1.14,0.01-1.36c-2.13-0.18-12.41,1.4-14.02,9.11c-2.71,13.03,5.62,14.67,8.15,14.88
					C54.29,74.63,54.76,73.97,52.5,72.9z"/>
			</g>
		</g>
	</g>
	</svg>
 <path fill="#e74a3b" d="M31.6,3.5C5.9,13.6-6.6,42.7,3.5,68.4c10.1,25.7,39.2,38.3,64.9,28.1l-3.1-7.9c-21.3,8.4-45.4-2-53.8-23.3
  c-8.4-21.3,2-45.4,23.3-53.8L31.6,3.5z">
      <animateTransform 
         attributeName="transform" 
         attributeType="XML" 
         type="rotate"
         dur="1s" 
         from="0 50 50"
         to="360 50 50" 
         repeatCount="indefinite" />
  </path>
 <path fill="#fcb318" d="M82,35.7C74.1,18,53.4,10.1,35.7,18S10.1,46.6,18,64.3l7.6-3.4c-6-13.5,0-29.3,13.5-35.3s29.3,0,35.3,13.5
  L82,35.7z">
      <animateTransform 
         attributeName="transform" 
         attributeType="XML" 
         type="rotate"
         dur="0.5s" 
         from="0 50 50"
         to="360 50 50" 
         repeatCount="indefinite" />
  </path>
</svg>
