<?xml version="1.0" encoding="utf-8"?>
<!-- Generator: Adobe Illustrator 23.0.2, SVG Export Plug-In . SVG Version: 6.00 Build 0)  -->
<svg version="1.1" id="Layer_1" xmlns="http://www.w3.org/2000/svg" xmlns:xlink="http://www.w3.org/1999/xlink" x="0px" y="0px"
	 viewBox="0 0 56.7 56.7" style="enable-background:new 0 0 56.7 56.7;" xml:space="preserve">
<style type="text/css">
	.st0{fill:#727272;}
	.st1{fill:none;stroke:#FFFFFF;stroke-width:34;stroke-miterlimit:10;}
	.st2{fill:none;stroke:#FFFFFF;stroke-width:59;stroke-miterlimit:10;}
	.st3{fill:none;stroke:#FFFFFF;stroke-width:50;stroke-miterlimit:10;}
	.st4{fill:#FFFFFF;}
	.st5{fill:#232323;}
	.st6{fill:none;stroke:#FFFFFF;stroke-width:15;stroke-linecap:round;stroke-miterlimit:10;}
	.st7{fill:none;stroke:#000000;stroke-width:15;stroke-linecap:round;stroke-miterlimit:10;}
	.st8{fill:#D5F7F4;}
	.st9{fill:#A7EAE6;}
	.st10{fill:#9CDBD8;}
	.st11{fill:#8DCCC6;}
	.st12{fill:none;stroke:#FFFFFF;stroke-width:50;stroke-linecap:round;stroke-miterlimit:10;}
	.st13{fill:#FFE645;}
	.st14{fill:#FFC12E;}
	.st15{fill:#F7A520;}
	.st16{fill:#F2860A;}
	.st17{fill:#C3282D;}
	.st18{fill:#F7F7F7;}
</style>
<g>
	<path d="M-6282.7-2100.2c0,5.6-2.7,8.4-8.1,8.4c-7.8,0-19.4-0.4-34.8-1.3c-15.4-0.8-26.9-1.3-34.5-1.3c-8,0-19.8,0.4-35.5,1.1
		c-15.7,0.7-27.4,1.1-35.2,1.1c-5.8,0-8.6-3.4-8.6-10.3c0-12.4,0.8-31.2,2.5-56.4c1.7-25.1,2.5-43.9,2.5-56.4
		c0-7.4-2.2-11.6-6.7-12.5c-7.1-1.7-20-2.5-38.7-2.5c-18.9,0-32.1,0.8-39.5,2.5c-4.5,0.9-6.7,5.1-6.7,12.5c0,12.4,0.6,31.2,1.7,56.4
		c1.1,25.2,1.7,43.9,1.7,56.4c0,6.9-2.9,10.3-8.6,10.3c-8,0-20-0.4-35.9-1.1c-16-0.7-27.9-1.1-35.9-1.1c-7.2,0-18.1,0.4-32.7,1.1
		c-14.6,0.7-25.5,1.1-32.7,1.1c-6.1,0-9.2-2.7-9.2-8.1c0-20.2,0.9-50.6,2.8-91.2c1.9-40.6,2.8-70.9,2.8-91.2c0-21.5-0.9-53.9-2.6-97
		c-1.8-43.2-2.6-75.5-2.6-97c0-4.1,2.2-6.1,6.7-6.1c7.8,0,19.5,0.4,35.2,1.1c15.7,0.7,27.4,1.1,35.2,1.1c8.4,0,20.8-0.4,37.3-1.3
		c16.5-0.8,29-1.3,37.3-1.3c3,0,4.5,1.9,4.5,5.6c0,12.6-1.3,31.6-4,56.9c-2.7,25.3-4,44.3-4,56.9c0,3.2,1.7,5.1,5,5.8
		c7.6,1.5,22.5,2.2,44.5,2.2c20.6,0,34.4-0.7,41.5-2.2c4.6-1.1,7-4.7,7-10.9c0-11.7-0.8-29.3-2.4-52.8c-1.6-23.5-2.4-41.1-2.4-52.8
		c0-5.9,1.5-8.9,4.5-8.9c7.8,0,19.7,0.4,35.6,1.3c16,0.8,27.9,1.3,35.9,1.3c7.8,0,19.5-0.4,35.1-1.1c15.6-0.7,27.2-1.1,34.8-1.1
		c4.8,0,7.2,2.2,7.2,6.7c0,21.5-0.9,53.8-2.6,96.7c-1.8,43-2.6,75.2-2.6,96.7c0,20.2,0.9,50.6,2.8,91.2
		C-6283.6-2150.8-6282.7-2120.4-6282.7-2100.2z"/>
</g>
<path class="st0" d="M-10797.6,1309.4h-456.5c-50.8,0-91.9-41.2-91.9-91.9V761c0-50.8,41.2-91.9,91.9-91.9h456.5
	c50.8,0,91.9,41.2,91.9,91.9v456.5C-10705.7,1268.3-10746.8,1309.4-10797.6,1309.4z"/>
<path class="st0" d="M-9975.2,1309.4h-456.5c-50.8,0-91.9-41.2-91.9-91.9V761c0-50.8,41.2-91.9,91.9-91.9h456.5
	c50.8,0,91.9,41.2,91.9,91.9v456.5C-9883.3,1268.3-9924.4,1309.4-9975.2,1309.4z"/>
<path class="st0" d="M-9155.6,1301.1h-456.5c-50.8,0-91.9-41.2-91.9-91.9V752.7c0-50.8,41.2-91.9,91.9-91.9h456.5
	c50.8,0,91.9,41.2,91.9,91.9v456.5C-9063.7,1259.9-9104.9,1301.1-9155.6,1301.1z"/>
<image style="overflow:visible;" width="484" height="533" xlink:href="AFFB9F95.jpg"  transform="matrix(1 0 0 1 -8329.0049 914.3378)">
</image>
<circle class="st1" cx="-6871.7" cy="-1260.2" r="120"/>
<path class="st1" d="M-6751.7-1500.2c0,66.3-53.7,120-120,120s-120-53.7-120-120"/>
<circle class="st2" cx="-5885" cy="-273" r="120"/>
<path class="st2" d="M-5769.1-481.8c-13.7,51.1-60.4,88.8-115.9,88.8c-55.5,0-102.2-37.7-115.9-88.8"/>
<path class="st3" d="M-5385.3-481.8c-8,51.1-35.2,88.8-67.6,88.8s-59.5-37.7-67.6-88.8"/>
<path class="st3" d="M-5385.3-304.2c-8-51.1-35.2-88.8-67.6-88.8s-59.5,37.7-67.6,88.8"/>
<polygon class="st4" points="-6871.7,-1493.6 -7065.8,-1472.2 -6991.7,-1575.6 "/>
<polygon class="st4" points="-6871.7,-1493.6 -6677.6,-1472.2 -6751.7,-1575.6 "/>
<line class="st1" x1="-6871.7" y1="-1135.1" x2="-6871.7" y2="-1005.6"/>
<line class="st1" x1="-6816.4" y1="-1061.9" x2="-6927" y2="-1061.9"/>
<circle class="st1" cx="-5265.1" cy="-1222.1" r="120"/>
<path class="st1" d="M-5147.8-1436.7c-11.6,54.1-59.7,94.6-117.3,94.6c-57.6,0-105.7-40.5-117.3-94.6"/>
<line class="st1" x1="-5265.1" y1="-1097" x2="-5265.1" y2="-967.5"/>
<line class="st1" x1="-5209.8" y1="-1023.7" x2="-5320.5" y2="-1023.7"/>
<path class="st1" d="M-4754.4-1259.1c3.8,11.6,5.8,24.1,5.8,37c0,66.3-53.7,120-120,120c-3.1,0-6.2-0.1-9.3-0.4
	c-8.3-0.6-16.4-2.1-24.2-4.4"/>
<path class="st1" d="M-4966.7-1152.9c-13.8-19.5-21.9-43.4-21.9-69.2c0-66.3,53.7-120,120-120c29.8,0,57.1,10.9,78.1,28.9"/>
<path class="st1" d="M-4751.3-1436.7c-11.6,54.1-59.7,94.6-117.3,94.6c-57.6,0-105.7-40.5-117.3-94.6"/>
<line class="st1" x1="-4868.6" y1="-1097" x2="-4868.6" y2="-967.5"/>
<line class="st1" x1="-4813.3" y1="-1023.7" x2="-4923.9" y2="-1023.7"/>
<g>
	<g>
		<path class="st5" d="M-2864.9,1565.4c-75.5,0-137-61.5-137-137c0-75.5,61.5-137,137-137c75.5,0,137,61.5,137,137
			C-2727.9,1503.9-2789.3,1565.4-2864.9,1565.4z M-2864.9,1325.4c-56.8,0-103,46.2-103,103c0,56.8,46.2,103,103,103
			s103-46.2,103-103C-2761.9,1371.6-2808.1,1325.4-2864.9,1325.4z"/>
	</g>
	<g>
		<rect x="-2881.9" y="1553.4" class="st5" width="34" height="129.5"/>
	</g>
	<g>
		<rect x="-2920.2" y="1609.7" class="st5" width="110.6" height="34"/>
	</g>
	<path class="st5" d="M-2763.4,1206.2c-8.5,48.3-50.7,85.2-101.5,85.2s-93-36.8-101.4-85.2l-33.8,3.7
		c10.4,65.3,67.1,115.4,135.3,115.4c68.2,0,124.9-50.1,135.3-115.4L-2763.4,1206.2z"/>
</g>
<g>
	<path class="st4" d="M-5902-1397.2c-75.5,0-137,61.5-137,137c0,0.7,0,1.5,0,2.2c0.5,32.9,12.7,63,32.6,86.4l28.3-19.3
		c-15.4-16.9-25.3-39-26.7-63.3c-0.1-2-0.2-4-0.2-6c0-56.8,46.2-103,103-103s103,46.2,103,103c0,2-0.1,4-0.2,6
		c-1.4,24.3-11.3,46.4-26.7,63.3l28.3,19.3c19.9-23.4,32.1-53.5,32.6-86.4c0-0.7,0-1.5,0-2.2
		C-5765-1335.8-5826.4-1397.2-5902-1397.2z"/>
</g>
<g>
	<rect x="-5919" y="-1135.1" class="st4" width="34" height="129.5"/>
</g>
<g>
	<rect x="-5957.3" y="-1078.9" class="st4" width="110.6" height="34"/>
</g>
<path class="st4" d="M-5800.5-1482.4c-8.5,48.3-50.7,85.2-101.5,85.2s-93-36.8-101.4-85.2l-33.8,3.7
	c10.4,65.3,67.1,115.4,135.3,115.4c68.2,0,124.9-50.1,135.3-115.4L-5800.5-1482.4z"/>
<g>
	<path class="st4" d="M-5765-1258c-0.5,32.9-12.7,63-32.6,86.4l-28.3-19.3c15.4-16.9,25.3-39,26.7-63.3L-5765-1258z"/>
	<path class="st4" d="M-5978.1-1190.9l-28.3,19.3c-19.9-23.4-32.1-53.5-32.6-86.4l34.2,3.8
		C-6003.4-1229.9-5993.5-1207.8-5978.1-1190.9z"/>
</g>
<circle class="st1" cx="-4938.7" cy="-1124.7" r="34.6"/>
<circle class="st1" cx="-4768.2" cy="-1287.8" r="34.6"/>
<g>
	<path class="st4" d="M-4324.2-1222.1c0,69.8-52.5,127.6-120,136c-5.6,0.7-11.2,1-17,1c-3.5,0-7.1-0.1-10.6-0.4
		c-2.1-0.2-4.3-0.4-6.4-0.7c-1-0.1-2-0.3-3.1-0.4c1.1-1.4,2.1-2.9,3.1-4.4c1.3-1.9,2.4-4,3.4-6.1c3.4-7,5.6-14.6,6.2-22.3
		c2.4,0.2,4.9,0.3,7.4,0.3c56.8,0,103-46.2,103-103c0-10.8-1.7-21.5-5-31.7l32.3-10.5C-4326.4-1250.7-4324.2-1236.5-4324.2-1222.1z"
		/>
</g>
<g>
	<path class="st4" d="M-4486.9-1362.4c-15.1,2.8-29.6,7.9-43,15.4c-1,0.5-1.9,1.1-2.9,1.7c-5.2-3.2-10.2-6.7-14.9-10.6
		c-24-19.6-40.8-47-47.3-77.2l33.2-7.2C-4553.6-1401.9-4523.8-1372-4486.9-1362.4z"/>
	<path class="st4" d="M-4327.2-1433.2c-6.5,30.2-23.3,57.6-47.3,77.2c-0.8,0.7-1.6,1.3-2.4,1.9c-1.7,1.4-3.5,2.7-5.3,3.9
		c-0.7,0.5-1.5,1.1-2.2,1.6c-0.8,0.5-1.6,1.1-2.4,1.6c-0.2,0.2-0.5,0.3-0.7,0.5c-0.6,0.4-1.2,0.8-1.8,1.2c-0.2,0.1-0.4,0.3-0.6,0.4
		c-0.8,0.5-1.5,0.9-2.3,1.4c-0.9,0.5-1.8,1-2.7,1.5c-0.6,0.4-1.3,0.7-1.9,1c-1.3,0.7-2.5,1.3-3.8,2c-0.6,0.3-1.3,0.6-1.9,0.9
		c-1.3,0.6-2.6,1.2-3.9,1.8c-0.5,0.2-1,0.4-1.6,0.7c-2.1,0.9-4.3,1.7-6.4,2.5c-0.4,0.1-0.8,0.3-1.2,0.4c-0.6,0.2-1.2,0.4-1.8,0.6
		c-0.2,0.1-0.4,0.1-0.6,0.2c-0.8,0.3-1.7,0.5-2.5,0.8c-1.1,0.3-2.2,0.7-3.3,1c-0.7,0.2-1.4,0.4-2.1,0.6c-1,0.3-2,0.5-3,0.8
		c-0.4,0.1-0.8,0.2-1.1,0.3c-0.7,0.2-1.4,0.3-2,0.5c-0.9,0.2-1.8,0.4-2.6,0.6c-0.8,0.2-1.5,0.3-2.3,0.4c-0.5,0.1-0.9,0.2-1.4,0.2
		c-0.6,0.1-1.2,0.2-1.8,0.3c-0.7,0.1-1.5,0.2-2.2,0.3c-0.5,0.1-0.9,0.1-1.4,0.2c0,0,0,0,0,0c-0.9,0.1-1.7,0.2-2.6,0.3
		c-0.9,0.1-1.8,0.2-2.6,0.3c-0.2,0-0.3,0-0.5,0c-0.8,0.1-1.6,0.1-2.4,0.2c-1.3,0.1-2.6,0.2-3.9,0.2c-0.5,0-1.1,0.1-1.6,0.1
		c-0.4,0-0.9,0-1.3,0c-0.8,0-1.6,0-2.3,0c-56.8,0-103,46.2-103,103c0,21.4,6.5,42,18.8,59.4l-27.8,19.6c-16.4-23.2-25-50.5-25-79
		c0-51.6,28.7-96.6,70.9-120c19.6-10.8,42.1-17,66.1-17c48.2,0,90.6-34.2,100.7-81.2L-4327.2-1433.2z"/>
</g>
<g>
	<path class="st4" d="M-4444.2-1097v129.5h-34v-123.5c1.3-1.9,2.4-4,3.4-6.1H-4444.2z"/>
</g>
<g>
	<rect x="-4516.5" y="-1040.7" class="st4" width="110.6" height="34"/>
</g>
<g>
	<path class="st4" d="M-4531.3-1176.4c-28.5,0-51.6,23.2-51.6,51.6c0,28.5,23.2,51.6,51.6,51.6c14.6,0,27.9-6.1,37.3-16
		c8-8.4,13.3-19.5,14.2-31.7c0.1-1.3,0.2-2.6,0.2-3.9C-4479.6-1153.2-4502.8-1176.4-4531.3-1176.4z M-4531.3-1107.1
		c-9.7,0-17.6-7.9-17.6-17.6c0-9.7,7.9-17.6,17.6-17.6s17.6,7.9,17.6,17.6C-4513.6-1115-4521.5-1107.1-4531.3-1107.1z"/>
</g>
<g>
	<path class="st4" d="M-4360.7-1339.4c-7.9,0-15.4,1.8-22.1,5c-10.7,5.1-19.5,13.8-24.6,24.5c-3.2,6.7-5,14.2-5,22.1
		c0,28.5,23.2,51.6,51.6,51.6s51.6-23.2,51.6-51.6C-4309.1-1316.3-4332.2-1339.4-4360.7-1339.4z M-4360.7-1270.1
		c-9.7,0-17.6-7.9-17.6-17.6c0-9.7,7.9-17.6,17.6-17.6s17.6,7.9,17.6,17.6C-4343.1-1278.1-4351-1270.1-4360.7-1270.1z"/>
</g>
<g>
	<g>
		<path class="st4" d="M-10096.9,965.1c0,53.4-40.1,97.5-91.8,104c-4.3,0.5-8.6,0.8-13,0.8c-2.7,0-5.4-0.1-8.1-0.3
			c-1.6-0.1-3.3-0.3-4.9-0.5c-0.8-0.1-1.6-0.2-2.3-0.3c0.8-1.1,1.6-2.2,2.3-3.4c1-1.5,1.8-3,2.6-4.6c2.6-5.3,4.3-11.1,4.8-17.1
			c1.9,0.1,3.8,0.2,5.6,0.2c43.4,0,78.8-35.3,78.8-78.8c0-8.3-1.3-16.5-3.8-24.3l24.7-8C-10098.6,943.3-10096.9,954.1-10096.9,965.1
			z"/>
	</g>
	<g>
		<path class="st4" d="M-10221.4,857.8c-11.5,2.1-22.7,6.1-32.9,11.8c-0.8,0.4-1.5,0.8-2.2,1.3c-4-2.4-7.8-5.1-11.4-8.1
			c-18.4-15-31.2-36-36.2-59l25.4-5.5C-10272.4,827.7-10249.6,850.5-10221.4,857.8z"/>
		<path class="st4" d="M-10099.3,803.7c-5,23.1-17.8,44-36.2,59c-0.6,0.5-1.2,1-1.9,1.5c-1.3,1-2.7,2-4.1,3
			c-0.6,0.4-1.1,0.8-1.7,1.2c-0.6,0.4-1.2,0.8-1.8,1.2c-0.2,0.1-0.4,0.2-0.6,0.4c-0.5,0.3-0.9,0.6-1.4,0.9c-0.2,0.1-0.3,0.2-0.5,0.3
			c-0.6,0.4-1.2,0.7-1.8,1c-0.7,0.4-1.4,0.8-2.1,1.2c-0.5,0.3-1,0.5-1.4,0.8c-1,0.5-2,1-2.9,1.5c-0.5,0.2-1,0.5-1.5,0.7
			c-1,0.5-2,0.9-3,1.4c-0.4,0.2-0.8,0.3-1.2,0.5c-1.6,0.7-3.3,1.3-4.9,1.9c-0.3,0.1-0.6,0.2-0.9,0.3c-0.5,0.2-0.9,0.3-1.4,0.5
			c-0.1,0.1-0.3,0.1-0.4,0.1c-0.6,0.2-1.3,0.4-1.9,0.6c-0.8,0.3-1.7,0.5-2.5,0.7c-0.5,0.2-1.1,0.3-1.6,0.4c-0.7,0.2-1.5,0.4-2.3,0.6
			c-0.3,0.1-0.6,0.1-0.9,0.2c-0.5,0.1-1,0.2-1.6,0.4c-0.7,0.2-1.4,0.3-2,0.4c-0.6,0.1-1.2,0.2-1.7,0.3c-0.4,0.1-0.7,0.1-1,0.2
			c-0.5,0.1-0.9,0.2-1.4,0.2c-0.6,0.1-1.1,0.2-1.7,0.2c-0.3,0.1-0.7,0.1-1,0.1c0,0,0,0,0,0c-0.7,0.1-1.3,0.2-2,0.2
			c-0.7,0.1-1.3,0.1-2,0.2c-0.1,0-0.3,0-0.4,0c-0.6,0.1-1.2,0.1-1.8,0.1c-1,0.1-2,0.1-3,0.2c-0.4,0-0.8,0-1.2,0c-0.3,0-0.7,0-1,0
			c-0.6,0-1.2,0-1.8,0c-43.4,0-78.8,35.3-78.8,78.8c0,16.4,5,32.1,14.4,45.4l-21.2,15c-12.5-17.7-19.2-38.6-19.2-60.4
			c0-39.5,21.9-73.9,54.3-91.8c15-8.3,32.2-13,50.5-13c36.9,0,69.3-26.1,77-62.1L-10099.3,803.7z"/>
	</g>
	<g>
		<path class="st4" d="M-10188.7,1060.8v99h-26v-94.4c1-1.5,1.8-3,2.6-4.6H-10188.7z"/>
	</g>
	<g>
		<rect x="-10244" y="1103.8" class="st4" width="84.6" height="26"/>
	</g>
	<g>
		<path class="st4" d="M-10255.3,1000.1c-21.8,0-39.5,17.7-39.5,39.5c0,21.8,17.7,39.5,39.5,39.5c11.2,0,21.3-4.7,28.5-12.2
			c6.1-6.4,10.1-14.9,10.8-24.3c0.1-1,0.1-2,0.1-3C-10215.8,1017.8-10233.5,1000.1-10255.3,1000.1z M-10255.3,1053.1
			c-7.4,0-13.5-6-13.5-13.5c0-7.4,6-13.5,13.5-13.5s13.5,6.1,13.5,13.5C-10241.8,1047.1-10247.9,1053.1-10255.3,1053.1z"/>
	</g>
	<g>
		<path class="st4" d="M-10124.9,875.4c-6,0-11.8,1.4-16.9,3.8c-8.2,3.9-14.9,10.6-18.8,18.8c-2.4,5.1-3.8,10.9-3.8,16.9
			c0,21.8,17.7,39.5,39.5,39.5s39.5-17.7,39.5-39.5C-10085.4,893.1-10103.1,875.4-10124.9,875.4z M-10124.9,928.4
			c-7.4,0-13.5-6-13.5-13.5c0-7.4,6-13.5,13.5-13.5s13.5,6.1,13.5,13.5C-10111.4,922.3-10117.4,928.4-10124.9,928.4z"/>
	</g>
</g>
<g>
	<g>
		<path d="M-10818.7,2894c0,76.6-57.6,140-131.7,149.2c-6.1,0.8-12.3,1.2-18.7,1.2c-3.9,0-7.8-0.1-11.6-0.4c-2.3-0.2-4.7-0.4-7-0.7
			c-1.1-0.1-2.2-0.3-3.3-0.4c1.2-1.6,2.3-3.2,3.3-4.8c1.4-2.1,2.6-4.4,3.7-6.7c3.8-7.7,6.1-16,6.8-24.5c2.7,0.2,5.4,0.3,8.1,0.3
			c62.3,0,113.1-50.7,113.1-113.1c0-11.9-1.8-23.6-5.5-34.8l35.5-11.5C-10821.2,2862.6-10818.7,2878.2-10818.7,2894z"/>
	</g>
	<g>
		<path d="M-10997.4,2740c-16.5,3-32.5,8.7-47.2,16.9c-1.1,0.6-2.1,1.2-3.2,1.8c-5.7-3.5-11.2-7.4-16.4-11.6
			c-26.4-21.5-44.8-51.6-51.9-84.7l36.5-7.9C-11070.6,2696.7-11037.9,2729.4-10997.4,2740z"/>
		<path d="M-10822.1,2662.3c-7.1,33.1-25.6,63.2-51.9,84.7c-0.9,0.7-1.8,1.4-2.7,2.1c-1.9,1.5-3.8,2.9-5.8,4.3
			c-0.8,0.6-1.6,1.2-2.5,1.7c-0.9,0.6-1.7,1.2-2.6,1.7c-0.3,0.2-0.5,0.4-0.8,0.5c-0.7,0.4-1.3,0.8-2,1.3c-0.2,0.1-0.5,0.3-0.7,0.4
			c-0.8,0.5-1.7,1-2.5,1.5c-1,0.6-2,1.1-3,1.7c-0.7,0.4-1.4,0.8-2.1,1.1c-1.4,0.7-2.8,1.4-4.2,2.2c-0.7,0.3-1.4,0.7-2.1,1
			c-1.4,0.7-2.9,1.3-4.3,1.9c-0.6,0.3-1.2,0.5-1.7,0.7c-2.3,1-4.7,1.9-7.1,2.7c-0.4,0.2-0.9,0.3-1.3,0.5c-0.6,0.2-1.3,0.5-2,0.7
			c-0.2,0.1-0.4,0.1-0.6,0.2c-0.9,0.3-1.9,0.6-2.8,0.9c-1.2,0.4-2.4,0.7-3.6,1.1c-0.8,0.2-1.5,0.4-2.3,0.6c-1.1,0.3-2.2,0.6-3.2,0.8
			c-0.4,0.1-0.8,0.2-1.2,0.3c-0.7,0.2-1.5,0.4-2.2,0.5c-1,0.2-1.9,0.4-2.9,0.6c-0.8,0.2-1.7,0.3-2.5,0.5c-0.5,0.1-1,0.2-1.5,0.3
			c-0.6,0.1-1.3,0.2-2,0.3c-0.8,0.1-1.6,0.2-2.4,0.4c-0.5,0.1-1,0.1-1.5,0.2c0,0,0,0,0,0c-0.9,0.1-1.9,0.2-2.8,0.3
			c-1,0.1-1.9,0.2-2.9,0.3c-0.2,0-0.4,0-0.6,0.1c-0.9,0.1-1.7,0.1-2.6,0.2c-1.4,0.1-2.8,0.2-4.3,0.2c-0.6,0-1.2,0.1-1.8,0.1
			c-0.5,0-1,0-1.5,0c-0.8,0-1.7,0-2.6,0c-62.3,0-113.1,50.7-113.1,113.1c0,23.5,7.1,46.1,20.7,65.2l-30.5,21.5
			c-18-25.4-27.5-55.4-27.5-86.7c0-56.6,31.5-106.1,77.9-131.7c21.5-11.9,46.2-18.7,72.5-18.7c52.9,0,99.4-37.5,110.5-89.2
			L-10822.1,2662.3z"/>
	</g>
	<g>
		<path d="M-10950.5,3031.3v142.2h-37.3V3038c1.4-2.1,2.6-4.4,3.7-6.7H-10950.5z"/>
	</g>
	<g>
		<rect x="-11029.8" y="3093.1" width="121.4" height="37.3"/>
	</g>
	<g>
		<path d="M-11046.1,2944.2c-31.3,0-56.7,25.4-56.7,56.7c0,31.3,25.4,56.7,56.7,56.7c16.1,0,30.6-6.7,41-17.5
			c8.8-9.2,14.5-21.4,15.6-34.8c0.1-1.4,0.2-2.9,0.2-4.3C-10989.4,2969.7-11014.8,2944.2-11046.1,2944.2z M-11046.1,3020.3
			c-10.7,0-19.4-8.7-19.4-19.4c0-10.7,8.7-19.4,19.4-19.4s19.4,8.7,19.4,19.4C-11026.7,3011.6-11035.4,3020.3-11046.1,3020.3z"/>
	</g>
	<g>
		<path d="M-10858.9,2765.2c-8.7,0-16.9,2-24.2,5.5c-11.8,5.6-21.4,15.1-27,26.9c-3.5,7.4-5.5,15.6-5.5,24.3
			c0,31.3,25.4,56.7,56.7,56.7s56.7-25.4,56.7-56.7C-10802.2,2790.6-10827.6,2765.2-10858.9,2765.2z M-10858.9,2841.3
			c-10.7,0-19.4-8.7-19.4-19.4c0-10.7,8.7-19.4,19.4-19.4c10.7,0,19.4,8.7,19.4,19.4C-10839.5,2832.6-10848.2,2841.3-10858.9,2841.3
			z"/>
	</g>
</g>
<g>
	<g>
		<path d="M-8449.1,3756.6c0,64-48.1,117-110,124.7c-5.1,0.6-10.3,1-15.6,1c-3.2,0-6.5-0.1-9.7-0.4c-2-0.1-3.9-0.3-5.9-0.6
			c-0.9-0.1-1.9-0.2-2.8-0.4c1-1.3,1.9-2.6,2.8-4c1.2-1.8,2.2-3.6,3.1-5.6c3.2-6.4,5.1-13.3,5.7-20.5c2.2,0.2,4.5,0.2,6.8,0.2
			c52.1,0,94.5-42.4,94.5-94.5c0-9.9-1.5-19.7-4.6-29.1l29.7-9.6C-8451.1,3730.3-8449.1,3743.4-8449.1,3756.6z"/>
	</g>
	<g>
		<path d="M-8598.3,3627.9c-13.8,2.5-27.2,7.3-39.5,14.1c-0.9,0.5-1.8,1-2.7,1.5c-4.8-2.9-9.3-6.2-13.7-9.7
			c-22-18-37.4-43.1-43.4-70.8l30.5-6.6C-8659.4,3591.7-8632.1,3619.1-8598.3,3627.9z"/>
		<path d="M-8451.9,3563c-5.9,27.7-21.3,52.8-43.4,70.8c-0.7,0.6-1.5,1.2-2.2,1.8c-1.6,1.2-3.2,2.4-4.9,3.6c-0.7,0.5-1.4,1-2.1,1.4
			c-0.7,0.5-1.4,1-2.2,1.4c-0.2,0.1-0.4,0.3-0.7,0.4c-0.6,0.4-1.1,0.7-1.7,1.1c-0.2,0.1-0.4,0.2-0.6,0.4c-0.7,0.4-1.4,0.8-2.1,1.2
			c-0.8,0.5-1.6,0.9-2.5,1.4c-0.6,0.3-1.2,0.6-1.7,0.9c-1.2,0.6-2.3,1.2-3.5,1.8c-0.6,0.3-1.2,0.6-1.8,0.9c-1.2,0.6-2.4,1.1-3.6,1.6
			c-0.5,0.2-1,0.4-1.4,0.6c-1.9,0.8-3.9,1.6-5.9,2.3c-0.4,0.1-0.7,0.3-1.1,0.4c-0.5,0.2-1.1,0.4-1.6,0.6c-0.2,0.1-0.3,0.1-0.5,0.2
			c-0.8,0.3-1.5,0.5-2.3,0.7c-1,0.3-2,0.6-3,0.9c-0.6,0.2-1.3,0.4-1.9,0.5c-0.9,0.2-1.8,0.5-2.7,0.7c-0.3,0.1-0.7,0.2-1,0.2
			c-0.6,0.1-1.2,0.3-1.9,0.4c-0.8,0.2-1.6,0.3-2.4,0.5c-0.7,0.1-1.4,0.3-2.1,0.4c-0.4,0.1-0.8,0.1-1.3,0.2c-0.5,0.1-1.1,0.2-1.6,0.3
			c-0.7,0.1-1.4,0.2-2,0.3c-0.4,0.1-0.8,0.1-1.2,0.2c0,0,0,0,0,0c-0.8,0.1-1.6,0.2-2.4,0.3c-0.8,0.1-1.6,0.2-2.4,0.2
			c-0.2,0-0.3,0-0.5,0c-0.7,0.1-1.5,0.1-2.2,0.2c-1.2,0.1-2.4,0.1-3.6,0.2c-0.5,0-1,0-1.5,0.1c-0.4,0-0.8,0-1.2,0
			c-0.7,0-1.4,0-2.1,0c-52.1,0-94.5,42.4-94.5,94.4c0,19.6,6,38.5,17.3,54.4l-25.5,18c-15-21.3-23-46.3-23-72.4
			c0-47.3,26.3-88.6,65.1-110c18-9.9,38.6-15.6,60.6-15.6c44.2,0,83.1-31.3,92.3-74.5L-8451.9,3563z"/>
	</g>
	<g>
		<path d="M-8559.1,3871.3V3990h-31.2v-113.2c1.2-1.8,2.2-3.6,3.1-5.6H-8559.1z"/>
	</g>
	<g>
		<rect x="-8625.4" y="3922.9" width="101.4" height="31.2"/>
	</g>
	<g>
		<path d="M-8639,3798.5c-26.1,0-47.4,21.2-47.4,47.4c0,26.1,21.2,47.4,47.4,47.4c13.4,0,25.6-5.6,34.2-14.6
			c7.4-7.7,12.1-17.9,13-29.1c0.1-1.2,0.1-2.4,0.1-3.6C-8591.6,3819.8-8612.9,3798.5-8639,3798.5z M-8639,3862
			c-8.9,0-16.2-7.3-16.2-16.2c0-8.9,7.3-16.2,16.2-16.2c8.9,0,16.2,7.3,16.2,16.2C-8622.8,3854.8-8630.1,3862-8639,3862z"/>
	</g>
	<g>
		<path d="M-8482.6,3649c-7.2,0-14.1,1.6-20.2,4.6c-9.8,4.7-17.8,12.7-22.5,22.5c-2.9,6.2-4.6,13-4.6,20.3
			c0,26.1,21.2,47.4,47.4,47.4c26.1,0,47.4-21.2,47.4-47.4C-8435.2,3670.2-8456.5,3649-8482.6,3649z M-8482.6,3712.5
			c-8.9,0-16.2-7.3-16.2-16.2c0-8.9,7.3-16.2,16.2-16.2c8.9,0,16.2,7.3,16.2,16.2C-8466.4,3705.3-8473.7,3712.5-8482.6,3712.5z"/>
	</g>
</g>
<g>
	<path class="st4" d="M-3464-1087c0,4.4-0.8,8.7-2.2,12.6c-0.1,0.3-0.2,0.6-0.3,0.8c-5.4,13.6-18.7,23.3-34.2,23.3h-23.3
		c-12.1,0-22.8-5.8-29.5-14.8c-4.6-6.1-7.3-13.7-7.3-21.9c0-10,4-19.1,10.5-25.7c4.2-4.3,9.6-7.6,15.5-9.4l-0.8,16.8
		c-6.1,3.9-10.2,10.7-10.2,18.4c0,7,3.3,13.2,8.4,17.2c3.7,2.9,8.3,4.6,13.3,4.6h23.3c8.7,0,16.3-5.2,19.7-12.6
		c0.1-0.2,0.2-0.5,0.3-0.7c0.1-0.3,0.2-0.6,0.3-0.8c0.1-0.3,0.2-0.6,0.3-0.9c0.7-2.1,1.1-4.4,1.1-6.7c0-3.9-1.1-7.8-3.1-11.2
		c-2.1-3.6-1-8.2,2.6-10.3c3-1.8,6.8-1.3,9.1,1.1c0,0,0,0,0,0c0.4,0.4,0.8,0.9,1.1,1.4C-3465.8-1100.2-3464-1093.7-3464-1087z"/>
</g>
<g>
	<path class="st4" d="M-3763.2-1045c0,4.1-3.4,7.5-7.5,7.5c-5.3,0-10.1,1.9-13.8,5c-0.3,0.2-0.6,0.5-0.9,0.8
		c-0.3,0.2-0.5,0.5-0.8,0.7c-0.7,0.7-1.4,1.5-2,2.4c-0.2,0.3-0.4,0.6-0.6,0.9c-0.6,0.9-1.1,1.8-1.6,2.7c-0.2,0.3-0.3,0.6-0.4,1
		c-0.3,0.6-0.5,1.3-0.7,2c-0.1,0.3-0.2,0.7-0.3,1c-0.1,0.3-0.1,0.5-0.2,0.7c-0.2,0.8-0.3,1.6-0.4,2.5c-0.1,0.7-0.1,1.5-0.1,2.2
		c0,0.6,0,1.2,0.1,1.8c0,0.6,0.1,1.2,0.2,1.8c0.2,1.2,0.5,2.3,0.9,3.4c0,0.1,0.1,0.2,0.1,0.4c0,0,0,0.1,0,0.1c1.1,3.8-1,7.8-4.8,9.1
		c-0.8,0.3-1.6,0.4-2.4,0.4c-3.1,0-6-2-7.1-5.1c-1.3-3.8-2-7.8-2-11.9c0-1.9,0.1-3.7,0.4-5.5c0.2-1.3,0.5-2.6,0.8-3.9
		c0.1-0.2,0.1-0.4,0.2-0.6c0.2-0.6,0.3-1.1,0.5-1.7c0.3-0.9,0.6-1.7,0.9-2.5c0.1-0.3,0.2-0.5,0.4-0.8c0.3-0.6,0.5-1.1,0.8-1.6
		c0.1-0.3,0.3-0.5,0.4-0.8c0.1-0.3,0.3-0.5,0.4-0.8c0.3-0.5,0.6-1,0.9-1.5c0.1-0.2,0.3-0.5,0.5-0.7c0,0,0,0,0.1-0.1
		c0.5-0.7,1-1.4,1.5-2.1c0.2-0.2,0.4-0.5,0.6-0.7c0.2-0.2,0.4-0.4,0.6-0.7c0,0,0,0,0.1-0.1c0.6-0.7,1.1-1.3,1.8-1.9
		c0.4-0.4,0.8-0.8,1.3-1.2c0,0,0,0,0.1-0.1c1.5-1.4,3.1-2.6,4.8-3.7c5.7-3.7,12.6-5.9,19.9-5.9c0.3,0,0.7,0,1,0.1
		C-3766-1051.9-3763.2-1048.8-3763.2-1045z"/>
</g>
<path class="st6" d="M-3436.5-951.3c2.6,4.4,4.1,9.5,4.1,15v0c0,16.2-13.1,29.3-29.3,29.3h-23.3"/>
<path class="st6" d="M-3832.8-1048.6c2.6,4.4,4.1,9.5,4.1,15l0,0c0,16.2-13.1,29.3-29.3,29.3h-23.3c-16.2,0-29.3-13.1-29.3-29.3l0,0
	c0-16.2,13.1-29.3,29.3-29.3"/>
<circle class="st7" cx="-3601.5" cy="-1200.4" r="17.7"/>
<circle class="st7" cx="-3717" cy="-1028.6" r="17.7"/>
<g>
	<g>
		<path class="st8" d="M-10846,901.2h-359.7c-13.1,0-23.7-10.6-23.7-23.7l0,0c0-4.4,3.6-8,8-8h391.1c4.4,0,8,3.6,8,8l0,0
			C-10822.3,890.6-10832.9,901.2-10846,901.2z"/>
	</g>
	<g>
		<path class="st9" d="M-10822.3,877.4v0.1c0,13-10.6,23.6-23.6,23.6h-13.3c3,1.1,5.1,4,5.1,7.4v0.1c0,13-10.6,23.6-23.6,23.6
			h-296.3c-13,0-23.6-10.6-23.6-23.6v-0.1c0-4.4,3.6-8,8-8h324.8c10.6-2.3,18.6-11.7,18.6-23.1v-0.1c0-4.4-3.6-8-8-8h23.9
			C-10825.9,869.5-10822.3,873.1-10822.3,877.4z"/>
	</g>
	<g>
		<g>
			<path class="st10" d="M-10854.1,908.6v0.1c0,13-10.6,23.6-23.6,23.6h-13.2c2.9,1.2,4.9,4,4.9,7.4v0.1c0,13-10.6,23.6-23.6,23.6
				h-232.7c-13,0-23.6-10.6-23.6-23.6v-0.1c0-4.4,3.6-8,8-8h261.5c10.5-2.4,18.3-11.8,18.3-23v-0.1c0-4.4-3.6-8-8-8h23.9
				C-10857.7,900.6-10854.1,904.2-10854.1,908.6z"/>
		</g>
		<g>
			<path class="st10" d="M-11003.1,885.2l-14.4,295.4c-0.2,4.5-3.9,8-8.3,8c-4.5,0-8.1-3.5-8.3-8l-14.4-295.4
				c-0.6-13,9.7-23.9,22.7-23.9C-11012.8,861.2-11002.5,872.1-11003.1,885.2z M-11025.8,838.6c15.7,0,28.5-12.8,28.5-28.6
				c0-15.8-12.8-28.6-28.5-28.6c-15.7,0-28.5,12.8-28.5,28.6C-11054.3,825.8-11041.6,838.6-11025.8,838.6z"/>
		</g>
	</g>
	<g>
		<path class="st11" d="M-10885.9,939.6v0.1c0,13-10.6,23.6-23.6,23.6h-23.9c13,0,23.6-10.6,23.6-23.6v-0.1c0-4.4-3.6-8-8-8h23.9
			C-10889.5,931.7-10885.9,935.3-10885.9,939.6z M-11025.8,861.2c-2.8,0-5.5,0.5-8,1.5c8.9,3.4,15.2,12.3,14.7,22.5l-14.4,295.4
			c0,0.7-0.1,1.3-0.3,1.9c1,3.5,4.2,6.1,8,6.1c4.5,0,8.1-3.5,8.3-8l14.4-295.4C-11002.5,872.1-11012.8,861.2-11025.8,861.2z
			 M-11025.8,781.4c-2.8,0-5.5,0.4-8,1.2c11.8,3.5,20.5,14.4,20.5,27.4s-8.6,24-20.5,27.4c2.5,0.7,5.2,1.2,8,1.2
			c15.7,0,28.5-12.8,28.5-28.6C-10997.3,794.2-11010.1,781.4-11025.8,781.4z"/>
	</g>
	<g>
		<path d="M-10967.3,926c-11.4,0-20.6-9.3-20.6-20.6s9.3-20.6,20.6-20.6s20.6,9.3,20.6,20.6S-10955.9,926-10967.3,926z
			 M-10967.3,897c-4.6,0-8.4,3.7-8.4,8.4c0,4.6,3.7,8.4,8.4,8.4s8.4-3.7,8.4-8.4C-10958.9,900.8-10962.7,897-10967.3,897z"/>
	</g>
	<g>
		<path d="M-11123.5,957.7c-11.4,0-20.6-9.3-20.6-20.6s9.3-20.6,20.6-20.6s20.6,9.3,20.6,20.6S-11112.1,957.7-11123.5,957.7z
			 M-11123.5,928.7c-4.6,0-8.4,3.7-8.4,8.4s3.7,8.4,8.4,8.4c4.6,0,8.4-3.7,8.4-8.4S-11118.8,928.7-11123.5,928.7z"/>
	</g>
	<g>
		<path d="M-11025.8,849c19.1,0,34.6-15.6,34.6-34.7c0-19.2-15.5-34.7-34.6-34.7s-34.6,15.6-34.6,34.7
			C-11060.5,833.5-11044.9,849-11025.8,849z M-11025.8,791.8c12.3,0,22.3,10.1,22.3,22.5s-10,22.5-22.3,22.5s-22.3-10.1-22.3-22.5
			S-11038.1,791.8-11025.8,791.8z M-11089.8,1046.6c-1.2,1.2-2.8,1.8-4.4,1.8c-1.6,0-3.1-0.6-4.3-1.8c-5.8-5.7-9-13.3-9-21.5
			c0-16.6,13.5-30.1,30-30.1c3.4,0,6.1,2.8,6.1,6.1c0,3.4-2.8,6.1-6.1,6.1c-9.8,0-17.7,8-17.7,17.8c0,4.8,1.9,9.3,5.3,12.7
			C-11087.5,1040.3-11087.4,1044.1-11089.8,1046.6z M-10976.5,1112c0.9,2.9,1.3,5.9,1.3,8.9c0,12.7-8,24.1-20,28.4
			c-0.7,0.2-1.4,0.4-2.1,0.4c-2.5,0-4.9-1.6-5.8-4.1c-1.1-3.2,0.5-6.7,3.7-7.8c7.1-2.5,11.8-9.3,11.8-16.8c0-1.8-0.3-3.6-0.8-5.3
			c-1-3.2,0.8-6.7,4.1-7.7C-10980.9,1107-10977.5,1108.8-10976.5,1112z M-10830.2,867.6h-175.4c-5.4-5.3-12.5-8.2-20.2-8.2
			c-7.6,0-14.8,2.9-20.2,8.3c-0.2,0-0.3,0-0.5,0h-174.9c-7.8,0-14.1,6.3-14.1,14.1v0.1c0,16.4,13.3,29.7,29.7,29.7h2.2
			c-0.1,0.6-0.1,1.2-0.1,1.8v0.1c0,16.4,13.3,29.7,29.7,29.7h2.2c-0.1,0.6-0.1,1.2-0.1,1.8v0.1c0,16.4,13.3,29.7,29.7,29.7h72.2
			c3.4,0,6.1-2.8,6.1-6.1s-2.8-6.1-6.1-6.1h-72.2c-9.6,0-17.4-7.8-17.4-17.4V945c0-0.9,0.7-1.7,1.6-1.8h16.4c0.1,0,0.3,0,0.4,0h0.7
			c3.4,0,6.1-2.8,6.1-6.1c0-3.4-2.8-6.1-6.1-6.1h-17.2c-0.2,0-0.4,0-0.7,0h-15.5c-9.6,0-17.4-7.8-17.4-17.4v-0.1
			c0-1,0.8-1.8,1.8-1.8h111.3c3.4,0,6.1-2.8,6.1-6.1c0-3.4-2.8-6.1-6.1-6.1h-102.9c-0.2,0-0.3,0-0.5,0h-24.1
			c-9.6,0-17.4-7.8-17.4-17.4v-0.1c0-1,0.8-1.8,1.8-1.8h167.9c-0.9,3.1-1.4,6.4-1.2,9.8l2,41.2h-33.7c-3.4,0-6.1,2.8-6.1,6.1
			c0,3.4,2.8,6.1,6.1,6.1h34.3l4.8,99.7h-15.2c-16.5,0-30,13.5-30,30.1c0,8.5,3.6,16.6,9.8,22.3c2.5,2.3,6.4,2.1,8.7-0.4
			c2.3-2.5,2.1-6.4-0.4-8.7c-3.7-3.4-5.8-8.2-5.8-13.2c0-9.8,7.9-17.8,17.7-17.8h15.8l1.7,35.6h-1.6c-16.5,0-30,13.5-30,30.1
			c0,12.7,8,24.1,20,28.4c3.2,1.1,6.7-0.5,7.8-3.7c1.1-3.2-0.5-6.7-3.7-7.8c-7.1-2.5-11.8-9.3-11.8-16.8c0-9.8,7.9-17.8,17.7-17.8
			h2.2l4,82c0.4,7.7,6.7,13.8,14.5,13.8s14.1-6.1,14.5-13.8l4-82h18.1c16.5,0,30-13.5,30-30.1c0-1.8-0.2-3.6-0.5-5.3
			c-0.6-3.3-3.8-5.6-7.1-5c-3.3,0.6-5.6,3.8-5,7.1c0.2,1,0.3,2.1,0.3,3.2c0,9.8-7.9,17.8-17.7,17.8h-17.5l1.7-35.6h30.9
			c16.5,0,30-13.5,30-30.1c0-16.6-13.5-30.1-30-30.1c-3.4,0-6.1,2.8-6.1,6.1c0,3.4,2.7,6.1,6.1,6.1c9.8,0,17.7,8,17.7,17.8
			c0,9.8-7.9,17.8-17.7,17.8h-30.3l4.8-99.7h63.8c3.4,0,6.1-2.8,6.1-6.1c0-3.4-2.8-6.1-6.1-6.1h-63.2l2-41.2
			c0.2-3.4-0.2-6.7-1.2-9.8h167.9c1,0,1.8,0.8,1.8,1.8v0.1c0,9.6-7.8,17.4-17.4,17.4h-17.8c-0.2,0-0.3,0-0.5,0h-86.3
			c-3.4,0-6.1,2.8-6.1,6.1c0,3.4,2.8,6.1,6.1,6.1h88.3c1,0,1.8,0.8,1.8,1.8v0.1c0,9.6-7.8,17.4-17.4,17.4h-15.5c-0.2,0-0.4,0-0.7,0
			h-18.5c-3.4,0-6.1,2.8-6.1,6.1c0,3.4,2.8,6.1,6.1,6.1h0.6c0.1,0,0.3,0,0.4,0h17.7c0.9,0.1,1.6,0.9,1.6,1.8v0.1
			c0,9.6-7.8,17.4-17.4,17.4h-73.4c-3.4,0-6.1,2.8-6.1,6.1c0,3.4,2.8,6.1,6.1,6.1h73.4c16.4,0,29.7-13.3,29.7-29.7V945
			c0-0.6,0-1.2-0.1-1.8h2.2c16.4,0,29.7-13.3,29.7-29.7v-0.1c0-0.6,0-1.2-0.1-1.8h2.2c16.4,0,29.7-13.3,29.7-29.7v-0.1
			C-10816.2,873.9-10822.5,867.6-10830.2,867.6z M-11023.6,1184.5c-0.1,1.2-1,2.1-2.2,2.1c-1.2,0-2.1-0.9-2.2-2.1l-4-81.4h12.3
			L-11023.6,1184.5z M-11019.1,1090.8h-13.5l-1.7-35.6h17L-11019.1,1090.8z M-11016.7,1043h-18.2l-7.5-153.8
			c-0.2-4.6,1.4-9,4.6-12.3c3.2-3.3,7.4-5.1,12-5.1s8.8,1.8,12,5.1c3.2,3.3,4.8,7.7,4.6,12.3L-11016.7,1043z"/>
	</g>
</g>
<g>
	<g>
		<path class="st8" d="M-10854.5,1903.2h-359.7c-13.1,0-23.7-10.6-23.7-23.7l0,0c0-4.4,3.6-8,8-8h391.1c4.4,0,8,3.6,8,8l0,0
			C-10830.8,1892.6-10841.4,1903.2-10854.5,1903.2z"/>
	</g>
	<g>
		<path class="st9" d="M-10830.8,1879.5v0.1c0,13-10.6,23.6-23.6,23.6h-13.3c3,1.1,5.1,4,5.1,7.4v0.1c0,13-10.6,23.6-23.6,23.6
			h-296.3c-13,0-23.6-10.6-23.6-23.6v-0.1c0-4.4,3.6-8,8-8h324.8c10.6-2.3,18.6-11.7,18.6-23.1v-0.1c0-4.4-3.6-8-8-8h23.9
			C-10834.3,1871.6-10830.8,1875.1-10830.8,1879.5z"/>
	</g>
	<g>
		<g>
			<path class="st10" d="M-10862.6,1910.6v0.1c0,13-10.6,23.6-23.6,23.6h-13.2c2.9,1.2,4.9,4,4.9,7.4v0.1c0,13-10.6,23.6-23.6,23.6
				h-232.7c-13,0-23.6-10.6-23.6-23.6v-0.1c0-4.4,3.6-8,8-8h261.5c10.5-2.4,18.3-11.8,18.3-23v-0.1c0-4.4-3.6-8-8-8h23.9
				C-10866.1,1902.7-10862.6,1906.2-10862.6,1910.6z"/>
		</g>
		<g>
			<path class="st10" d="M-11011.6,1887.2l-14.4,295.4c-0.2,4.5-3.9,8-8.3,8s-8.1-3.5-8.3-8l-14.4-295.4c-0.6-13,9.7-23.9,22.7-23.9
				C-11021.3,1863.3-11011,1874.2-11011.6,1887.2z M-11034.3,1840.7c15.7,0,28.5-12.8,28.5-28.6c0-15.8-12.8-28.6-28.5-28.6
				s-28.5,12.8-28.5,28.6C-11062.8,1827.9-11050,1840.7-11034.3,1840.7z"/>
		</g>
	</g>
	<g>
		<path class="st11" d="M-10894.4,1941.7v0.1c0,13-10.6,23.6-23.6,23.6h-23.9c13,0,23.6-10.6,23.6-23.6v-0.1c0-4.4-3.6-8-8-8h23.9
			C-10897.9,1933.8-10894.4,1937.3-10894.4,1941.7z M-11034.3,1863.3c-2.8,0-5.5,0.5-8,1.5c8.9,3.4,15.2,12.3,14.7,22.5l-14.4,295.4
			c0,0.7-0.1,1.3-0.3,1.9c1,3.5,4.2,6.1,8,6.1c4.5,0,8.1-3.5,8.3-8l14.4-295.4C-11011,1874.2-11021.3,1863.3-11034.3,1863.3z
			 M-11034.3,1783.5c-2.8,0-5.5,0.4-8,1.2c11.8,3.5,20.5,14.4,20.5,27.4s-8.6,24-20.5,27.4c2.5,0.7,5.2,1.2,8,1.2
			c15.7,0,28.5-12.8,28.5-28.6C-11005.8,1796.3-11018.6,1783.5-11034.3,1783.5z"/>
	</g>
	<g>
		<path d="M-10975.8,1928.1c-11.4,0-20.6-9.3-20.6-20.6s9.3-20.6,20.6-20.6c11.4,0,20.6,9.3,20.6,20.6
			S-10964.4,1928.1-10975.8,1928.1z M-10975.8,1899.1c-4.6,0-8.4,3.7-8.4,8.4s3.7,8.4,8.4,8.4c4.6,0,8.4-3.7,8.4-8.4
			S-10971.2,1899.1-10975.8,1899.1z"/>
	</g>
	<g>
		<path d="M-11131.9,1959.7c-11.4,0-20.6-9.3-20.6-20.6c0-11.4,9.3-20.6,20.6-20.6s20.6,9.3,20.6,20.6
			C-11111.3,1950.5-11120.6,1959.7-11131.9,1959.7z M-11131.9,1930.8c-4.6,0-8.4,3.7-8.4,8.4s3.7,8.4,8.4,8.4c4.6,0,8.4-3.7,8.4-8.4
			S-11127.3,1930.8-11131.9,1930.8z"/>
	</g>
	<g>
		<path d="M-11034.3,1851.1c19.1,0,34.6-15.6,34.6-34.7c0-19.2-15.5-34.7-34.6-34.7s-34.6,15.6-34.6,34.7
			C-11068.9,1835.5-11053.4,1851.1-11034.3,1851.1z M-11034.3,1793.9c12.3,0,22.3,10.1,22.3,22.5c0,12.4-10,22.5-22.3,22.5
			c-12.3,0-22.3-10.1-22.3-22.5C-11056.7,1804-11046.6,1793.9-11034.3,1793.9z M-11098.3,2048.6c-1.2,1.2-2.8,1.8-4.4,1.8
			c-1.6,0-3.1-0.6-4.3-1.8c-5.8-5.7-9-13.3-9-21.5c0-16.6,13.5-30.1,30-30.1c3.4,0,6.1,2.8,6.1,6.1c0,3.4-2.8,6.1-6.1,6.1
			c-9.8,0-17.7,8-17.7,17.8c0,4.8,1.9,9.3,5.3,12.7C-11096,2042.3-11095.9,2046.2-11098.3,2048.6z M-10985,2114.1
			c0.9,2.9,1.3,5.9,1.3,8.9c0,12.7-8,24.1-20,28.4c-0.7,0.2-1.4,0.4-2.1,0.4c-2.5,0-4.9-1.6-5.8-4.1c-1.1-3.2,0.5-6.7,3.7-7.8
			c7.1-2.5,11.8-9.3,11.8-16.8c0-1.8-0.3-3.6-0.8-5.3c-1-3.2,0.8-6.7,4.1-7.7C-10989.4,2109-10986,2110.8-10985,2114.1z
			 M-10838.7,1869.7h-175.4c-5.4-5.3-12.5-8.2-20.2-8.2c-7.6,0-14.8,2.9-20.2,8.3c-0.2,0-0.3,0-0.5,0h-174.9
			c-7.8,0-14.1,6.3-14.1,14.1v0.1c0,16.4,13.3,29.7,29.7,29.7h2.2c-0.1,0.6-0.1,1.2-0.1,1.8v0.1c0,16.4,13.3,29.7,29.7,29.7h2.2
			c-0.1,0.6-0.1,1.2-0.1,1.8v0.1c0,16.4,13.3,29.7,29.7,29.7h72.2c3.4,0,6.1-2.8,6.1-6.1c0-3.4-2.8-6.1-6.1-6.1h-72.2
			c-9.6,0-17.4-7.8-17.4-17.4v-0.1c0-0.9,0.7-1.7,1.6-1.8h16.4c0.1,0,0.3,0,0.4,0h0.7c3.4,0,6.1-2.8,6.1-6.1c0-3.4-2.8-6.1-6.1-6.1
			h-17.2c-0.2,0-0.4,0-0.7,0h-15.5c-9.6,0-17.4-7.8-17.4-17.4v-0.1c0-1,0.8-1.8,1.8-1.8h111.3c3.4,0,6.1-2.8,6.1-6.1
			c0-3.4-2.8-6.1-6.1-6.1h-102.9c-0.2,0-0.3,0-0.5,0h-24.1c-9.6,0-17.4-7.8-17.4-17.4v-0.1c0-1,0.8-1.8,1.8-1.8h167.9
			c-0.9,3.1-1.4,6.4-1.2,9.8l2,41.2h-33.7c-3.4,0-6.1,2.8-6.1,6.1s2.8,6.1,6.1,6.1h34.3l4.8,99.7h-15.2c-16.5,0-30,13.5-30,30.1
			c0,8.5,3.6,16.6,9.8,22.3c2.5,2.3,6.4,2.1,8.7-0.4c2.3-2.5,2.1-6.4-0.4-8.7c-3.7-3.4-5.8-8.2-5.8-13.2c0-9.8,7.9-17.8,17.7-17.8
			h15.8l1.7,35.6h-1.6c-16.5,0-30,13.5-30,30.1c0,12.7,8,24.1,20,28.4c3.2,1.1,6.7-0.5,7.8-3.7c1.1-3.2-0.5-6.7-3.7-7.8
			c-7.1-2.5-11.8-9.3-11.8-16.8c0-9.8,7.9-17.8,17.7-17.8h2.2l4,82c0.4,7.7,6.7,13.8,14.5,13.8c7.7,0,14.1-6.1,14.5-13.8l4-82h18.1
			c16.5,0,30-13.5,30-30.1c0-1.8-0.2-3.6-0.5-5.3c-0.6-3.3-3.8-5.6-7.1-5c-3.3,0.6-5.6,3.8-5,7.1c0.2,1,0.3,2.1,0.3,3.2
			c0,9.8-7.9,17.8-17.7,17.8h-17.5l1.7-35.6h30.9c16.5,0,30-13.5,30-30.1c0-16.6-13.5-30.1-30-30.1c-3.4,0-6.1,2.8-6.1,6.1
			c0,3.4,2.8,6.1,6.1,6.1c9.8,0,17.7,8,17.7,17.8s-7.9,17.8-17.7,17.8h-30.3l4.8-99.7h63.8c3.4,0,6.1-2.8,6.1-6.1
			c0-3.4-2.7-6.1-6.1-6.1h-63.2l2-41.2c0.2-3.4-0.2-6.7-1.2-9.8h167.9c1,0,1.8,0.8,1.8,1.8v0.1c0,9.6-7.8,17.4-17.4,17.4h-17.8
			c-0.2,0-0.3,0-0.5,0h-86.3c-3.4,0-6.1,2.8-6.1,6.1s2.8,6.1,6.1,6.1h88.3c1,0,1.8,0.8,1.8,1.8v0.1c0,9.6-7.8,17.4-17.4,17.4h-15.5
			c-0.2,0-0.4,0-0.7,0h-18.5c-3.4,0-6.1,2.8-6.1,6.1s2.8,6.1,6.1,6.1h0.6c0.1,0,0.3,0,0.4,0h17.7c0.9,0.1,1.6,0.9,1.6,1.8v0.1
			c0,9.6-7.8,17.4-17.4,17.4h-73.4c-3.4,0-6.1,2.8-6.1,6.1c0,3.4,2.8,6.1,6.1,6.1h73.4c16.4,0,29.7-13.3,29.7-29.7v-0.1
			c0-0.6,0-1.2-0.1-1.8h2.2c16.4,0,29.7-13.3,29.7-29.7v-0.1c0-0.6,0-1.2-0.1-1.8h2.2c16.4,0,29.7-13.3,29.7-29.7v-0.1
			C-10824.6,1876-10831,1869.7-10838.7,1869.7z M-11032.1,2186.6c-0.1,1.2-1,2.1-2.2,2.1s-2.1-0.9-2.2-2.1l-4-81.4h12.3
			L-11032.1,2186.6z M-11027.6,2092.9h-13.5l-1.7-35.6h17L-11027.6,2092.9z M-11025.2,2045h-18.2l-7.5-153.8
			c-0.2-4.6,1.4-9,4.6-12.3c3.2-3.3,7.4-5.1,12-5.1c4.6,0,8.8,1.8,12,5.1c3.2,3.3,4.8,7.7,4.6,12.3L-11025.2,2045z"/>
	</g>
</g>
<g>
	<g>
		<path class="st8" d="M-8445.5,1870.8h-359.7c-13.1,0-23.7-10.6-23.7-23.7l0,0c0-4.4,3.6-8,8-8h391.1c4.4,0,8,3.6,8,8l0,0
			C-8421.8,1860.2-8432.4,1870.8-8445.5,1870.8z"/>
	</g>
	<g>
		<path class="st9" d="M-8421.8,1847v0.1c0,13-10.6,23.6-23.6,23.6h-13.3c3,1.1,5.1,4,5.1,7.4v0.1c0,13-10.6,23.6-23.6,23.6h-296.3
			c-13,0-23.6-10.6-23.6-23.6v-0.1c0-4.4,3.6-8,8-8h324.8c10.6-2.3,18.6-11.7,18.6-23.1v-0.1c0-4.4-3.6-8-8-8h23.9
			C-8425.3,1839.1-8421.8,1842.7-8421.8,1847z"/>
	</g>
	<g>
		<g>
			<path class="st10" d="M-8453.6,1878.2v0.1c0,13-10.6,23.6-23.6,23.6h-13.2c2.9,1.2,4.9,4,4.9,7.4v0.1c0,13-10.6,23.6-23.6,23.6
				h-232.7c-13,0-23.6-10.6-23.6-23.6v-0.1c0-4.4,3.6-8,8-8h261.5c10.5-2.4,18.3-11.8,18.3-23v-0.1c0-4.4-3.6-8-8-8h23.9
				C-8457.1,1870.2-8453.6,1873.8-8453.6,1878.2z"/>
		</g>
		<g>
			<path class="st10" d="M-8602.6,1854.8l-14.4,295.4c-0.2,4.5-3.9,8-8.3,8s-8.1-3.5-8.3-8l-14.4-295.4c-0.6-13,9.7-23.9,22.7-23.9
				C-8612.3,1830.8-8602,1841.7-8602.6,1854.8z M-8625.3,1808.2c15.7,0,28.5-12.8,28.5-28.6c0-15.8-12.8-28.6-28.5-28.6
				s-28.5,12.8-28.5,28.6C-8653.8,1795.4-8641,1808.2-8625.3,1808.2z"/>
		</g>
	</g>
	<g>
		<path class="st11" d="M-8485.4,1909.2v0.1c0,13-10.6,23.6-23.6,23.6h-23.9c13,0,23.6-10.6,23.6-23.6v-0.1c0-4.4-3.6-8-8-8h23.9
			C-8488.9,1901.3-8485.4,1904.9-8485.4,1909.2z M-8625.3,1830.8c-2.8,0-5.5,0.5-8,1.5c8.9,3.4,15.2,12.3,14.7,22.5l-14.4,295.4
			c0,0.7-0.1,1.3-0.3,1.9c1,3.5,4.2,6.1,8,6.1c4.5,0,8.1-3.5,8.3-8l14.4-295.4C-8602,1841.7-8612.3,1830.8-8625.3,1830.8z
			 M-8625.3,1751c-2.8,0-5.5,0.4-8,1.2c11.8,3.5,20.5,14.4,20.5,27.4s-8.6,24-20.5,27.4c2.5,0.7,5.2,1.2,8,1.2
			c15.7,0,28.5-12.8,28.5-28.6C-8596.8,1763.8-8609.6,1751-8625.3,1751z"/>
	</g>
	<g>
		<path d="M-8566.8,1895.6c-11.4,0-20.6-9.3-20.6-20.6c0-11.4,9.3-20.6,20.6-20.6c11.4,0,20.6,9.3,20.6,20.6
			C-8546.1,1886.4-8555.4,1895.6-8566.8,1895.6z M-8566.8,1866.6c-4.6,0-8.4,3.7-8.4,8.4c0,4.6,3.7,8.4,8.4,8.4
			c4.6,0,8.4-3.7,8.4-8.4C-8558.4,1870.4-8562.2,1866.6-8566.8,1866.6z"/>
	</g>
	<g>
		<path d="M-8722.9,1927.3c-11.4,0-20.6-9.3-20.6-20.6s9.3-20.6,20.6-20.6c11.4,0,20.6,9.3,20.6,20.6S-8711.6,1927.3-8722.9,1927.3z
			 M-8722.9,1898.3c-4.6,0-8.4,3.7-8.4,8.4s3.7,8.4,8.4,8.4c4.6,0,8.4-3.7,8.4-8.4S-8718.3,1898.3-8722.9,1898.3z"/>
	</g>
	<g>
		<path d="M-8625.3,1818.7c19.1,0,34.6-15.6,34.6-34.7s-15.5-34.7-34.6-34.7s-34.6,15.6-34.6,34.7S-8644.4,1818.7-8625.3,1818.7z
			 M-8625.3,1761.5c12.3,0,22.3,10.1,22.3,22.5c0,12.4-10,22.5-22.3,22.5s-22.3-10.1-22.3-22.5
			C-8647.7,1771.5-8637.6,1761.5-8625.3,1761.5z M-8689.3,2016.2c-1.2,1.2-2.8,1.8-4.4,1.8c-1.6,0-3.1-0.6-4.3-1.8
			c-5.8-5.7-9-13.3-9-21.5c0-16.6,13.5-30.1,30-30.1c3.4,0,6.1,2.8,6.1,6.1c0,3.4-2.8,6.1-6.1,6.1c-9.8,0-17.7,8-17.7,17.8
			c0,4.8,1.9,9.3,5.3,12.7C-8687,2009.9-8686.9,2013.7-8689.3,2016.2z M-8576,2081.6c0.9,2.9,1.3,5.9,1.3,8.9c0,12.7-8,24.1-20,28.4
			c-0.7,0.2-1.4,0.4-2.1,0.4c-2.5,0-4.9-1.6-5.8-4.1c-1.1-3.2,0.5-6.7,3.7-7.8c7.1-2.5,11.8-9.3,11.8-16.8c0-1.8-0.3-3.6-0.8-5.3
			c-1-3.2,0.8-6.7,4.1-7.7C-8580.4,2076.6-8577,2078.4-8576,2081.6z M-8429.7,1837.2h-175.4c-5.4-5.3-12.5-8.2-20.2-8.2
			c-7.6,0-14.8,2.9-20.2,8.3c-0.2,0-0.3,0-0.5,0h-174.9c-7.8,0-14.1,6.3-14.1,14.1v0.1c0,16.4,13.3,29.7,29.7,29.7h2.2
			c-0.1,0.6-0.1,1.2-0.1,1.8v0.1c0,16.4,13.3,29.7,29.7,29.7h2.2c-0.1,0.6-0.1,1.2-0.1,1.8v0.1c0,16.4,13.3,29.7,29.7,29.7h72.2
			c3.4,0,6.1-2.8,6.1-6.1s-2.8-6.1-6.1-6.1h-72.2c-9.6,0-17.4-7.8-17.4-17.4v-0.1c0-0.9,0.7-1.7,1.6-1.8h16.4c0.1,0,0.3,0,0.4,0h0.7
			c3.4,0,6.1-2.8,6.1-6.1c0-3.4-2.8-6.1-6.1-6.1h-17.2c-0.2,0-0.4,0-0.7,0h-15.5c-9.6,0-17.4-7.8-17.4-17.4v-0.1
			c0-1,0.8-1.8,1.8-1.8h111.3c3.4,0,6.1-2.8,6.1-6.1c0-3.4-2.8-6.1-6.1-6.1h-102.9c-0.2,0-0.3,0-0.5,0h-24.1
			c-9.6,0-17.4-7.8-17.4-17.4v-0.1c0-1,0.8-1.8,1.8-1.8h167.9c-0.9,3.1-1.4,6.4-1.2,9.8l2,41.2h-33.7c-3.4,0-6.1,2.8-6.1,6.1
			c0,3.4,2.8,6.1,6.1,6.1h34.3l4.8,99.7h-15.2c-16.5,0-30,13.5-30,30.1c0,8.5,3.6,16.6,9.8,22.3c2.5,2.3,6.4,2.1,8.7-0.4
			s2.1-6.4-0.4-8.7c-3.7-3.4-5.8-8.2-5.8-13.2c0-9.8,7.9-17.8,17.7-17.8h15.8l1.7,35.6h-1.6c-16.5,0-30,13.5-30,30.1
			c0,12.7,8,24.1,20,28.4c3.2,1.1,6.7-0.5,7.8-3.7c1.1-3.2-0.5-6.7-3.7-7.8c-7.1-2.5-11.8-9.3-11.8-16.8c0-9.8,7.9-17.8,17.7-17.8
			h2.2l4,82c0.4,7.7,6.7,13.8,14.5,13.8c7.7,0,14.1-6.1,14.5-13.8l4-82h18.1c16.5,0,30-13.5,30-30.1c0-1.8-0.2-3.6-0.5-5.3
			c-0.6-3.3-3.8-5.6-7.1-5c-3.3,0.6-5.6,3.8-5,7.1c0.2,1,0.3,2.1,0.3,3.2c0,9.8-7.9,17.8-17.7,17.8h-17.5l1.7-35.6h30.9
			c16.5,0,30-13.5,30-30.1c0-16.6-13.5-30.1-30-30.1c-3.4,0-6.1,2.8-6.1,6.1c0,3.4,2.8,6.1,6.1,6.1c9.8,0,17.7,8,17.7,17.8
			c0,9.8-7.9,17.8-17.7,17.8h-30.3l4.8-99.7h63.8c3.4,0,6.1-2.8,6.1-6.1c0-3.4-2.7-6.1-6.1-6.1h-63.2l2-41.2
			c0.2-3.4-0.2-6.7-1.2-9.8h167.9c1,0,1.8,0.8,1.8,1.8v0.1c0,9.6-7.8,17.4-17.4,17.4h-17.8c-0.2,0-0.3,0-0.5,0h-86.3
			c-3.4,0-6.1,2.8-6.1,6.1c0,3.4,2.7,6.1,6.1,6.1h88.3c1,0,1.8,0.8,1.8,1.8v0.1c0,9.6-7.8,17.4-17.4,17.4h-15.5c-0.2,0-0.4,0-0.7,0
			h-18.5c-3.4,0-6.1,2.8-6.1,6.1c0,3.4,2.7,6.1,6.1,6.1h0.6c0.1,0,0.3,0,0.4,0h17.7c0.9,0.1,1.6,0.9,1.6,1.8v0.1
			c0,9.6-7.8,17.4-17.4,17.4h-73.4c-3.4,0-6.1,2.8-6.1,6.1c0,3.4,2.7,6.1,6.1,6.1h73.4c16.4,0,29.7-13.3,29.7-29.7v-0.1
			c0-0.6,0-1.2-0.1-1.8h2.2c16.4,0,29.7-13.3,29.7-29.7v-0.1c0-0.6,0-1.2-0.1-1.8h2.2c16.4,0,29.7-13.3,29.7-29.7v-0.1
			C-8415.6,1843.6-8422,1837.2-8429.7,1837.2z M-8623.1,2154.1c-0.1,1.2-1,2.1-2.2,2.1c-1.2,0-2.1-0.9-2.2-2.1l-4-81.4h12.3
			L-8623.1,2154.1z M-8618.6,2060.4h-13.5l-1.7-35.6h17L-8618.6,2060.4z M-8616.2,2012.6h-18.2l-7.5-153.8c-0.2-4.6,1.4-9,4.6-12.3
			c3.2-3.3,7.4-5.1,12-5.1c4.6,0,8.8,1.8,12,5.1c3.2,3.3,4.8,7.7,4.6,12.3L-8616.2,2012.6z"/>
	</g>
</g>
<path class="st3" d="M-4971.4-357.4v41.7c0,22.1-15,40-33.5,40h-76c-18.5,0-33.5-17.9-33.5-40v-41.7"/>
<path class="st3" d="M-5114.4-136.8v-99c0-22.1,15-40,33.5-40h76c18.5,0,33.5,17.9,33.5,40v99"/>
<line class="st12" x1="-6908.8" y1="-2543.7" x2="-6109.2" y2="-2543.7"/>
<path class="st12" d="M-6109.2-2457.9"/>
<path class="st12" d="M-6908.8-2457.9"/>
<path class="st12" d="M-6109.2-2372.1"/>
<path class="st12" d="M-6908.8-2372.1"/>
<path class="st12" d="M-6109.2-2286.3"/>
<path class="st12" d="M-6908.8-2286.3"/>
<line class="st12" x1="-6459.8" y1="-2457.9" x2="-6109.2" y2="-2457.9"/>
<line class="st12" x1="-6908.8" y1="-2457.9" x2="-6547.3" y2="-2457.9"/>
<path class="st12" d="M-6109.2-2372.1"/>
<path class="st12" d="M-6908.8-2372.1"/>
<path class="st12" d="M-6109.2-2286.3"/>
<path class="st12" d="M-6908.8-2286.3"/>
<path class="st12" d="M-6908.8-2200.5"/>
<path class="st12" d="M-6109.2-2372.1"/>
<line class="st12" x1="-6445.4" y1="-2372.1" x2="-6338.6" y2="-2372.1"/>
<line class="st12" x1="-6908.8" y1="-2372.1" x2="-6602.5" y2="-2372.1"/>
<path class="st12" d="M-6109.2-2286.3"/>
<path class="st12" d="M-6908.8-2286.3"/>
<path class="st12" d="M-6908.8-2200.5"/>
<path class="st12" d="M-6109.2-2114.7"/>
<path class="st12" d="M-6908.8-2114.7"/>
<line class="st12" x1="-6455.9" y1="-2286.3" x2="-6109.2" y2="-2286.3"/>
<line class="st12" x1="-6908.8" y1="-2286.3" x2="-6535.6" y2="-2286.3"/>
<path class="st12" d="M-6908.8-2200.5"/>
<path class="st12" d="M-6109.2-2114.7"/>
<path class="st12" d="M-6908.8-2114.7"/>
<line class="st12" x1="-6908.8" y1="-2028.9" x2="-6109.2" y2="-2028.9"/>
<line class="st12" x1="-6908.8" y1="-2200.5" x2="-6344.6" y2="-2200.5"/>
<line class="st12" x1="-6424.1" y1="-2114.7" x2="-6093.2" y2="-2114.7"/>
<line class="st12" x1="-6908.8" y1="-2114.7" x2="-6584.6" y2="-2114.7"/>
<line class="st12" x1="-6908.8" y1="-2028.9" x2="-6109.2" y2="-2028.9"/>
<line class="st12" x1="-6908.8" y1="-1943.2" x2="-6109.2" y2="-1943.2"/>
<g>
	<path d="M-5343-2139.7c-0.5-14.8-1.1-32-2-51.6c-1.3-28.3-2.1-51.6-2.5-70c-0.2-8-0.3-15.1-0.3-21.2c0-8.1,0.1-17.7,0.4-28.8
		c0.4-18.5,1.2-41.1,2.3-68c0.8-20.3,1.5-38.1,1.9-53.6c0.5-17.4,0.7-31.8,0.7-43.1c0-4.4-2.4-6.7-7.2-6.7c-7.6,0-19.2,0.4-34.8,1.1
		c-15.6,0.8-27.3,1.1-35.1,1.1c-8,0-19.9-0.4-35.9-1.3c-11.7-0.6-21.2-1-28.6-1.2c-2.6-0.1-5-0.1-7.1-0.1c-0.3,0-0.6,0-0.8,0.1
		c-2.4,0.5-3.6,3.4-3.6,8.8c0,9.7,0.5,23.4,1.6,41.2c0.2,3.7,0.5,7.5,0.7,11.6c0.6,8.9,1.1,17,1.4,24.2c0.6,11.8,0.9,21.3,0.9,28.5
		c0,6.1-2.3,9.8-7,10.9c-5.1,1.1-13.7,1.8-25.9,2.1c-4.7,0.1-9.9,0.2-15.6,0.2c-22.1,0-36.9-0.7-44.5-2.2c-3.3-0.7-5-2.7-5-5.9
		c0-12.6,1.3-31.6,4-56.9c2.7-25.3,4-44.3,4-56.9c0-3.7-1.5-5.6-4.5-5.6c-4.7,0-10.6,0.1-17.8,0.4c0,0,0,0,0,0
		c-5.7,0.2-12.2,0.5-19.5,0.9c-16.5,0.8-29,1.3-37.3,1.3c-7.8,0-19.5-0.4-35.2-1.1c-15.7-0.7-27.4-1.1-35.2-1.1
		c-4.5,0-6.7,2-6.7,6.1c0,11.5,0.3,26.1,0.8,43.7c0.3,10.8,0.7,22.7,1.2,35.8c0.2,5.6,0.4,11.5,0.7,17.6c0.5,11.6,0.9,22.4,1.2,32.4
		c0.5,13.3,0.8,25.2,1,35.8c0.3,11.1,0.4,20.7,0.4,28.8c0,6.1-0.1,13.2-0.3,21.2c-0.2,10.4-0.6,22.3-1.1,35.8
		c-0.4,10.4-0.9,21.8-1.4,34.2c-0.3,5.5-0.5,10.7-0.7,15.8c-0.6,13.2-1,25.1-1.3,35.8c-0.5,15.9-0.7,29.1-0.7,39.6
		c0,5.4,3.1,8.1,9.2,8.1c7.2,0,18.1-0.4,32.7-1.1s25.5-1.1,32.7-1.1c7.2,0,17.8,0.3,31.5,0.9c1.4,0.1,2.9,0.1,4.4,0.2
		c16,0.7,27.9,1.1,35.9,1.1c5.8,0,8.6-3.4,8.6-10.3c0-12.4-0.6-31.2-1.7-56.4c-0.3-5.9-0.5-11.5-0.7-16.8c-0.7-16.9-1-30.1-1-39.6
		c0-4.8,0.9-8.3,2.8-10.4c1-1.1,2.3-1.8,3.8-2.2c7.4-1.7,20.6-2.5,39.5-2.5c18.7,0,31.6,0.8,38.7,2.5c1.5,0.3,2.8,1,3.8,2.2
		c1.9,2.1,2.8,5.5,2.8,10.4c0,9.5-0.5,22.7-1.5,39.6c-0.3,5.2-0.6,10.8-1,16.8c-0.6,8.6-1,16.4-1.4,23.5
		c-0.7,13.7-1.1,24.7-1.1,32.9c0,6.9,2.9,10.3,8.6,10.3c7.8,0,19.5-0.4,35.2-1.1c15.7-0.7,27.5-1.1,35.5-1.1
		c7.6,0,19.1,0.4,34.5,1.3c15.4,0.8,27,1.3,34.8,1.3c5.4,0,8.1-2.8,8.1-8.3C-5342.2-2110.6-5342.5-2123.8-5343-2139.7z"/>
</g>
<g>
	<path class="st4" d="M-5168.8-2518.7h-799.5c-13.8,0-25-11.2-25-25s11.2-25,25-25h799.5c13.8,0,25,11.2,25,25
		S-5155-2518.7-5168.8-2518.7z"/>
</g>
<g>
	<path class="st12" d="M-5168.8-2457.9"/>
</g>
<g>
	<path class="st12" d="M-5168.8-2372.1"/>
</g>
<g>
	<path class="st12" d="M-5168.8-2286.3"/>
</g>
<g>
	<path class="st4" d="M-5168.8-2432.9h-350.6c-13.8,0-25-11.2-25-25s11.2-25,25-25h350.6c13.8,0,25,11.2,25,25
		S-5155-2432.9-5168.8-2432.9z"/>
</g>
<g>
	<path class="st4" d="M-5581.9-2457.9c0,13.8-11.2,25-25,25h-129.3c-0.5-17.6-0.8-32.2-0.8-43.7c0-4.1,2.2-6.1,6.7-6.1
		c7.8,0,19.5,0.4,35.2,1.1c15.7,0.8,27.4,1.1,35.2,1.1c8.4,0,20.8-0.4,37.3-1.3c7.3-0.4,13.8-0.7,19.5-0.9c0,0,0,0,0,0
		C-5591.1-2480.7-5581.9-2470.4-5581.9-2457.9z"/>
</g>
<g>
	<path class="st12" d="M-5168.8-2372.1"/>
</g>
<g>
	<path class="st12" d="M-5168.8-2286.3"/>
</g>
<g>
	<path class="st12" d="M-5168.8-2372.1"/>
</g>
<g>
	<path class="st4" d="M-5398.2-2347.1H-5505c-13.8,0-25-11.2-25-25s11.2-25,25-25h106.7c13.8,0,25,11.2,25,25
		S-5384.4-2347.1-5398.2-2347.1z"/>
</g>
<g>
	<path class="st4" d="M-5637.1-2372.1c0,13.8-11.2,25-25,25h-71.1c-0.4-10-0.8-20.8-1.2-32.4c-0.3-6.1-0.5-11.9-0.7-17.6h73
		C-5648.3-2397.1-5637.1-2385.9-5637.1-2372.1z"/>
</g>
<g>
	<path class="st12" d="M-5168.8-2286.3"/>
</g>
<g>
	<path class="st12" d="M-5168.8-2114.7"/>
</g>
<g>
	<path class="st4" d="M-5168.8-2261.3h-346.7c-13.8,0-25-11.2-25-25s11.2-25,25-25h346.7c13.8,0,25,11.2,25,25
		S-5155-2261.3-5168.8-2261.3z"/>
</g>
<g>
	<path class="st4" d="M-5570.2-2286.3c0,13.8-11.2,25-25,25H-5732c0.2-8,0.3-15.1,0.3-21.2c0-8.1-0.1-17.7-0.4-28.8h136.9
		C-5581.4-2311.3-5570.2-2300.1-5570.2-2286.3z"/>
</g>
<g>
	<path class="st12" d="M-5168.8-2114.7"/>
</g>
<g>
	<path class="st4" d="M-5379.2-2200.5c0,13.8-11.2,25-25,25h-331c0.2-5.1,0.4-10.4,0.7-15.8c0.6-12.3,1-23.7,1.4-34.2h328.9
		C-5390.4-2225.5-5379.2-2214.3-5379.2-2200.5z"/>
</g>
<g>
	<path class="st4" d="M-5152.8-2089.7h-330.9c-13.8,0-25-11.2-25-25s11.2-25,25-25h330.9c13.8,0,25,11.2,25,25
		S-5139-2089.7-5152.8-2089.7z"/>
</g>
<g>
	<path class="st4" d="M-5619.2-2114.7c0,9-4.8,16.9-12,21.3c-13.8-0.6-24.3-0.9-31.5-0.9c-7.2,0-18.1,0.4-32.7,1.1
		s-25.5,1.1-32.7,1.1c-6.1,0-9.2-2.7-9.2-8.1c0-10.5,0.3-23.7,0.7-39.6h92.4C-5630.4-2139.7-5619.2-2128.5-5619.2-2114.7z"/>
</g>
<g>
	<path class="st4" d="M-5168.8-1918.2h-799.5c-13.8,0-25-11.2-25-25s11.2-25,25-25h799.5c13.8,0,25,11.2,25,25
		S-5155-1918.2-5168.8-1918.2z"/>
</g>
<g>
	<path d="M-7064.5-3003.1c0,4.9-2.4,7.3-7.1,7.3c-6.8,0-17-0.4-30.5-1.1c-13.5-0.7-23.6-1.1-30.3-1.1c-7,0-17.4,0.3-31.1,1
		c-13.8,0.7-24,1-30.9,1c-5,0-7.6-3-7.6-9c0-10.9,0.7-27.4,2.2-49.4c1.5-22.1,2.2-38.5,2.2-49.4c0-6.5-2-10.2-5.9-11
		c-6.2-1.5-17.5-2.2-33.9-2.2c-16.6,0-28.2,0.7-34.7,2.2c-3.9,0.8-5.9,4.5-5.9,11c0,10.9,0.5,27.4,1.5,49.4
		c1,22.1,1.5,38.5,1.5,49.4c0,6-2.5,9-7.6,9c-7,0-17.5-0.3-31.5-1c-14-0.6-24.5-1-31.5-1c-6.3,0-15.9,0.3-28.7,1
		c-12.8,0.7-22.3,1-28.7,1c-5.4,0-8.1-2.4-8.1-7.1c0-17.7,0.8-44.4,2.4-80c1.6-35.6,2.4-62.2,2.4-80c0-18.9-0.8-47.2-2.3-85.1
		c-1.5-37.8-2.3-66.2-2.3-85.1c0-3.6,2-5.4,5.9-5.4c6.8,0,17.1,0.3,30.9,1c13.8,0.7,24,1,30.9,1c7.3,0,18.2-0.4,32.7-1.1
		c14.5-0.7,25.4-1.1,32.7-1.1c2.6,0,3.9,1.6,3.9,4.9c0,11.1-1.2,27.7-3.5,49.9c-2.4,22.2-3.5,38.9-3.5,49.9c0,2.8,1.5,4.5,4.4,5.1
		c6.7,1.3,19.7,2,39.1,2c18.1,0,30.2-0.6,36.4-2c4.1-1,6.1-4.2,6.1-9.5c0-10.3-0.7-25.7-2.1-46.3c-1.4-20.6-2.1-36-2.1-46.3
		c0-5.2,1.3-7.8,3.9-7.8c6.8,0,17.3,0.4,31.3,1.1c14,0.7,24.5,1.1,31.5,1.1c6.8,0,17.1-0.3,30.8-1c13.7-0.6,23.8-1,30.5-1
		c4.2,0,6.3,2,6.3,5.9c0,18.9-0.8,47.2-2.3,84.8c-1.5,37.7-2.3,66-2.3,84.8c0,17.7,0.8,44.4,2.4,80
		C-7065.4-3047.5-7064.5-3020.8-7064.5-3003.1z"/>
</g>
<g>
	<line class="st12" x1="-7642" y1="-3399.5" x2="-6842.5" y2="-3399.5"/>
	<line class="st12" x1="-7642" y1="-3313.7" x2="-6842.5" y2="-3313.7"/>
	<line class="st12" x1="-7642" y1="-3227.9" x2="-6842.5" y2="-3227.9"/>
	<line class="st12" x1="-7642" y1="-3142.1" x2="-6842.5" y2="-3142.1"/>
	<line class="st12" x1="-7642" y1="-3313.7" x2="-6842.5" y2="-3313.7"/>
	<line class="st12" x1="-7642" y1="-3227.9" x2="-6842.5" y2="-3227.9"/>
	<line class="st12" x1="-7642" y1="-3142.1" x2="-6842.5" y2="-3142.1"/>
	<line class="st12" x1="-7642" y1="-3056.3" x2="-6842.5" y2="-3056.3"/>
	<line class="st12" x1="-7642" y1="-3227.9" x2="-6842.5" y2="-3227.9"/>
	<line class="st12" x1="-7642" y1="-3142.1" x2="-6842.5" y2="-3142.1"/>
	<line class="st12" x1="-7642" y1="-3056.3" x2="-6842.5" y2="-3056.3"/>
	<line class="st12" x1="-7642" y1="-2970.6" x2="-6842.5" y2="-2970.6"/>
	<line class="st12" x1="-7642" y1="-3142.1" x2="-6842.5" y2="-3142.1"/>
	<line class="st12" x1="-7642" y1="-3056.3" x2="-6842.5" y2="-3056.3"/>
	<line class="st12" x1="-7642" y1="-2970.6" x2="-6842.5" y2="-2970.6"/>
	<line class="st12" x1="-7642" y1="-2884.8" x2="-6842.5" y2="-2884.8"/>
	<line class="st12" x1="-7642" y1="-3056.3" x2="-6842.5" y2="-3056.3"/>
	<line class="st12" x1="-7642" y1="-2970.6" x2="-6842.5" y2="-2970.6"/>
	<line class="st12" x1="-7642" y1="-2884.8" x2="-6842.5" y2="-2884.8"/>
	<line class="st12" x1="-7642" y1="-2799" x2="-6842.5" y2="-2799"/>
</g>
<rect x="-5541.6" y="-3194.3" style="fill:none;" width="565" height="524.9"/>
<text transform="matrix(1 0 0 1 -5541.6377 -2840.7883)" style="font-family:'BerlinSansFB-Bold'; font-size:500px;">H</text>
<path class="st13" d="M-9350.9,891v298.2c0,14.3-11.6,25.8-25.8,25.8c-14.3,0-25.8-11.6-25.8-25.8V891L-9350.9,891z"/>
<path class="st14" d="M-9376.7,1214.9c14.3,0,25.8-11.6,25.8-25.8V891l-25.8,0V1214.9z"/>
<path class="st13" d="M-9376.7,903.6C-9376.7,903.6-9376.7,903.6-9376.7,903.6l-95.4,0c-31.3,0-57.4-22.4-63.3-52
	c-16.2-0.7-31.3-7.3-42.8-18.9c-12.2-12.2-18.9-28.4-18.9-45.6c0-3.4,1.4-6.7,3.8-9.1c2.4-2.4,5.7-3.8,9.1-3.8h0l155.4,0.1
	c17.2,0,33.5,6.7,45.8,18.9c12.4,12.2,19.2,28.5,19.2,45.7v51.9c0,3.4-1.4,6.7-3.8,9.1C-9370,902.2-9373.3,903.6-9376.7,903.6z"/>
<path class="st14" d="M-9535.4,851.6c5.9,29.6,32,52,63.3,52l95.4,0h0c3.4,0,6.7-1.4,9.1-3.8c2.4-2.4,3.8-5.7,3.8-9.1v-39.1H-9535.4
	z"/>
<path class="st14" d="M-9376.7,903.6V800.2c1.9-2.5,4-4.9,6.3-7.2c12.3-12.2,28.6-18.9,45.8-18.9l155.4-0.1h0c3.4,0,6.7,1.4,9.1,3.8
	c2.4,2.4,3.8,5.7,3.8,9.1c0,17.2-6.7,33.4-18.9,45.6c-11.5,11.5-26.6,18.2-42.8,18.9c-5.9,29.6-32,52-63.3,52L-9376.7,903.6
	C-9376.7,903.6-9376.7,903.6-9376.7,903.6z"/>
<path class="st15" d="M-9376.7,851.6v52h0l95.4,0c31.3,0,57.4-22.4,63.3-52H-9376.7z"/>
<path class="st16" d="M-9298.6,1180.8C-9298.6,1180.8-9298.6,1180.8-9298.6,1180.8c-7.1,0-12.9-5.8-12.9-12.9l0-4.9
	c0-8-6.5-14.5-14.5-14.5l-25,0l0-25.8l25,0c22.2,0,40.3,18.1,40.3,40.4l0,4.9C-9285.7,1175.1-9291.4,1180.8-9298.6,1180.8z"/>
<path class="st16" d="M-9316.2,1008.9l-33.7,0c0,0,0,0,0,0l0,25.8l33.7,0c4.8,0,9.2,1.9,12.6,5.3c3.3,3.4,5.1,7.9,5.1,12.7
	c-0.1,9.6-8.1,17.4-17.7,17.4c0,0,0,0,0,0l-59.5-0.1v25.8l59.4,0.1h0c23.6,0,43.1-19.2,43.5-42.8c0.2-11.7-4.3-22.8-12.5-31.2
	C-9293.5,1013.5-9304.5,1008.9-9316.2,1008.9z"/>
<path class="st16" d="M-9398.9,955.3c-0.1,0-0.3,0-0.4,0l-14.2-0.2c-18-0.2-32.6-15-32.6-33c0-8.9,3.5-17.2,9.8-23.5
	c6.3-6.2,14.7-9.6,23.6-9.5l14.2,0.2c17.9,0.2,32.6,15,32.6,33c0,8.9-3.5,17.2-9.8,23.5C-9382,952-9390.2,955.3-9398.9,955.3z"/>
<path class="st4" d="M-9157.8,776.3c-2.4-2.5-5.8-3.8-9.2-3.8c0,0,0,0,0,0l-157.2,0.1c-17.4,0-33.9,6.8-46.4,19.1
	c-2.3,2.3-4.4,4.7-6.4,7.3c-1.9-2.5-4-5-6.4-7.3c-12.5-12.3-28.9-19.1-46.4-19.1l-157.2-0.1c0,0,0,0,0,0c-3.5,0-6.8,1.4-9.2,3.8
	c-2.5,2.5-3.8,5.8-3.8,9.2c0,17.4,6.8,33.8,19.1,46.2c11.7,11.7,27,18.4,43.3,19.1c5.9,29.9,32.4,52.6,64,52.6l25.1,0
	c-1.5,4.1-2.2,8.6-2.2,13.1c0,4.7,0.8,9.2,2.4,13.4c-24.2,4.4-42.7,25.4-42.9,50.9v0c-0.1,14,5.2,27.1,14.9,37.1
	c9.8,10,22.8,15.5,36.8,15.7l23.2,0.2v35.7l-18.8-0.2c-10.5-0.1-20.3,3.9-27.8,11.2c-7.5,7.3-11.7,17.1-11.8,27.6l0,0.5
	c-0.2,21.4,17,38.9,38.4,39.1l20,0.2v31.3c0,21.6,17.6,39.2,39.2,39.2c21.6,0,39.2-17.6,39.2-39.2l0-30.6l11.4,0.1
	c3.9,0,7.6,1.6,10.3,4.4c2.7,2.8,4.2,6.5,4.2,10.4l0,5c-0.1,7.2,5.7,13.1,12.9,13.2h0.1c7.2,0,13-5.8,13.1-12.9l0-4.9
	c0.1-10.9-4-21.2-11.7-29c-7.6-7.8-17.8-12.1-28.7-12.2l-11.6-0.1l0-26.1l20.6,0.2h0.4c23.7,0,43.4-19.2,44-42.9
	c0.3-11.9-4.1-23.1-12.4-31.6c-8.3-8.5-19.3-13.3-31.2-13.4l-21.5-0.2l0-105l57.4,0c31.7,0,58.1-22.7,64-52.6
	c16.4-0.7,31.7-7.4,43.3-19.1c12.3-12.3,19.1-28.7,19.1-46.2C-9153.9,782.1-9155.3,778.7-9157.8,776.3z M-9510.4,851l45.3,0.2h0.1
	c7.2,0,13-5.8,13.1-13c0-7.2-5.8-13.1-13-13.1l-69.7-0.3c-10.5,0-20.3-4.1-27.7-11.5c-4.2-4.2-7.3-9.2-9.2-14.6l141.9,0
	c10.5,0,20.5,4.1,28,11.5c7.5,7.4,11.7,17.2,11.7,27.6v39.5l-83.4,0C-9490.5,877.3-9505.1,866.3-9510.4,851z M-9394.8,929.7
	l-16.8-0.2c-7-0.1-12.8-5.9-12.8-12.9c0-3.5,1.4-6.8,3.9-9.2c2.4-2.4,5.7-3.7,9.1-3.7c0.1,0,0.1,0,0.2,0l16.8,0.2
	c7,0.1,12.8,5.9,12.8,13c0,3.5-1.4,6.8-3.8,9.2C-9388.1,928.4-9391.4,929.7-9394.8,929.7z M-9439.1,1007.5
	c-14.4-0.1-26-12-25.9-26.4c0,0,0,0,0,0c0.2-14.3,11.8-25.9,26.1-25.9h0.3l22.4,0.2v52.3L-9439.1,1007.5z M-9390,1034.1l26.1,0.3
	l0,35.7l-26.1-0.3V1034.1z M-9435.9,1121.6c-3.4,0-6.5-1.4-8.9-3.8c-2.4-2.4-3.6-5.6-3.6-8.9l0-0.5c0-3.5,1.4-6.7,3.9-9.2
	s5.8-3.8,9.3-3.8l19,0.2v26.1L-9435.9,1121.6z M-9363.9,1179.3c0,7.2-5.9,13.1-13.1,13.1c-7.2,0-13.1-5.9-13.1-13.1v-31.1l26.1,0.3
	L-9363.9,1179.3z M-9363.9,1122.3l-26.1-0.2V1096l26.1,0.3L-9363.9,1122.3z M-9316.6,1034.8c4.8,0,9.3,2,12.7,5.4
	c3.4,3.5,5.1,8,5,12.8c-0.2,9.7-8.2,17.4-17.9,17.4c-0.1,0-0.1,0-0.2,0l-20.9-0.2l0-35.7L-9316.6,1034.8z M-9390,1007.9v-52.4
	c8.6-1,16.5-4.8,22.8-11c1.2-1.2,2.3-2.4,3.3-3.7l0,67.4L-9390,1007.9z M-9191.5,813.2c-7.4,7.4-17.2,11.5-27.8,11.5l-69.6,0.3
	c-7.2,0-13,5.9-13,13.1c0,7.2,5.9,13,13.1,13l45.3-0.2c-5.3,15.3-19.9,26.3-37,26.3l-83.4,0v-39.5c0-10.4,4.1-20.2,11.7-27.6
	c7.5-7.4,17.5-11.5,28-11.5l141.9,0C-9184.2,804.1-9187.3,809-9191.5,813.2z"/>
<path class="st16" d="M-10963.9,3942.4C-10963.9,3942.4-10963.9,3942.4-10963.9,3942.4c-7.1,0-12.9-5.8-12.9-12.9l0-4.9
	c0-8-6.5-14.5-14.5-14.5l-25,0l0-25.8l25,0c22.2,0,40.3,18.1,40.3,40.4l0,4.9C-10951,3936.6-10956.8,3942.4-10963.9,3942.4z"/>
<g>
	<path class="st13" d="M-11016.3,3652.5v298.2c0,14.3-11.6,25.8-25.8,25.8c-14.3,0-25.8-11.6-25.8-25.8v-298.1L-11016.3,3652.5z"/>
	<path class="st14" d="M-11042.1,3976.5c14.3,0,25.8-11.6,25.8-25.8v-298.2l-25.8,0V3976.5z"/>
	<path class="st13" d="M-11042.1,3665.2C-11042.1,3665.2-11042.1,3665.2-11042.1,3665.2l-95.4,0c-31.3,0-57.4-22.4-63.3-52
		c-16.2-0.7-31.3-7.3-42.8-18.9c-12.2-12.2-18.9-28.4-18.9-45.6c0-3.4,1.4-6.7,3.8-9.1c2.4-2.4,5.7-3.8,9.1-3.8h0l155.4,0.1
		c17.2,0,33.5,6.7,45.8,18.9c12.4,12.2,19.2,28.5,19.2,45.7v51.9c0,3.4-1.4,6.7-3.8,9.1
		C-11035.4,3663.8-11038.7,3665.2-11042.1,3665.2z"/>
	<path class="st14" d="M-11200.8,3613.1c5.9,29.6,32,52,63.3,52l95.4,0h0c3.4,0,6.7-1.4,9.1-3.8c2.4-2.4,3.8-5.7,3.8-9.1v-39.1
		H-11200.8z"/>
	<path class="st14" d="M-11042.1,3665.2v-103.4c1.9-2.5,4-4.9,6.3-7.2c12.3-12.2,28.6-18.9,45.8-18.9l155.4-0.1h0
		c3.4,0,6.7,1.4,9.1,3.8c2.4,2.4,3.8,5.7,3.8,9.1c0,17.2-6.7,33.4-18.9,45.6c-11.5,11.5-26.6,18.2-42.8,18.9
		c-5.9,29.6-32,52-63.3,52L-11042.1,3665.2C-11042.1,3665.2-11042.1,3665.2-11042.1,3665.2z"/>
	<path class="st15" d="M-11042.1,3613.1v52h0l95.4,0c31.3,0,57.4-22.4,63.3-52H-11042.1z"/>
	<path class="st16" d="M-10981.6,3770.5l-33.7,0c0,0,0,0,0,0l0,25.8l33.7,0c4.8,0,9.2,1.9,12.6,5.3c3.3,3.4,5.1,7.9,5.1,12.7
		c-0.1,9.6-8.1,17.4-17.7,17.4c0,0,0,0,0,0l-59.5-0.1v25.8l59.4,0.1h0.1c23.6,0,43.1-19.2,43.5-42.8c0.2-11.7-4.3-22.8-12.5-31.2
		C-10958.8,3775.1-10969.8,3770.5-10981.6,3770.5z"/>
	<path class="st16" d="M-11064.3,3716.9c-0.1,0-0.3,0-0.4,0l-14.2-0.2c-18-0.2-32.6-15-32.6-33c0-8.9,3.5-17.2,9.8-23.5
		c6.3-6.2,14.7-9.6,23.6-9.5l14.2,0.2c17.9,0.2,32.6,15,32.6,33c0,8.9-3.5,17.2-9.8,23.5
		C-11047.4,3713.5-11055.6,3716.9-11064.3,3716.9z"/>
	<path d="M-10823.1,3537.9c-2.5-2.5-5.8-3.8-9.2-3.8c0,0,0,0,0,0l-157.2,0.1c-17.4,0-33.9,6.8-46.4,19.1c-2.3,2.3-4.4,4.7-6.4,7.3
		c-1.9-2.5-4-5-6.4-7.3c-12.5-12.3-28.9-19.1-46.4-19.1l-157.2-0.1c0,0,0,0,0,0c-3.5,0-6.8,1.4-9.2,3.8c-2.5,2.5-3.8,5.8-3.8,9.2
		c0,17.4,6.8,33.8,19.1,46.2c11.7,11.7,27,18.4,43.3,19.1c5.9,29.9,32.4,52.6,64,52.6l25.1,0c-1.5,4.1-2.2,8.6-2.2,13.1
		c0,4.7,0.8,9.2,2.4,13.4c-24.2,4.4-42.7,25.4-42.9,50.9v0c-0.1,14,5.2,27.1,14.9,37.1c9.8,10,22.8,15.5,36.8,15.7l23.2,0.2v35.7
		l-18.8-0.2c-10.5-0.1-20.3,3.9-27.8,11.2c-7.5,7.3-11.7,17.1-11.8,27.6l0,0.5c-0.2,21.4,17,38.9,38.4,39.1l20,0.2v31.3
		c0,21.6,17.6,39.2,39.2,39.2c21.6,0,39.2-17.6,39.2-39.2l0-30.6l11.4,0.1c3.9,0,7.6,1.6,10.3,4.4c2.7,2.8,4.2,6.5,4.2,10.4l0,5
		c-0.1,7.2,5.7,13.1,12.9,13.2h0.1c7.2,0,13-5.8,13.1-12.9l0-4.9c0.1-10.9-4-21.2-11.7-29c-7.6-7.8-17.8-12.1-28.7-12.2l-11.6-0.1
		l0-26.1l20.6,0.2h0.4c23.7,0,43.4-19.2,44-42.9c0.3-11.9-4.1-23.1-12.4-31.6c-8.3-8.5-19.3-13.3-31.2-13.4l-21.5-0.2l0-105l57.4,0
		c31.7,0,58.1-22.7,64-52.6c16.4-0.7,31.7-7.4,43.3-19.1c12.3-12.3,19.1-28.7,19.1-46.2
		C-10819.3,3543.6-10820.7,3540.3-10823.1,3537.9z M-11175.8,3612.5l45.3,0.2h0.1c7.2,0,13-5.8,13.1-13c0-7.2-5.8-13.1-13-13.1
		l-69.7-0.3c-10.5,0-20.3-4.1-27.7-11.5c-4.2-4.2-7.3-9.2-9.2-14.6l141.9,0c10.5,0,20.5,4.1,28,11.5c7.5,7.4,11.7,17.2,11.7,27.6
		v39.5l-83.4,0C-11155.9,3638.8-11170.5,3627.8-11175.8,3612.5z M-11060.2,3691.2l-16.8-0.2c-7-0.1-12.8-5.9-12.8-12.9
		c0-3.5,1.4-6.8,3.9-9.2c2.4-2.4,5.7-3.7,9.1-3.7c0.1,0,0.1,0,0.2,0l16.8,0.2c7,0.1,12.8,5.9,12.8,13c0,3.5-1.4,6.8-3.8,9.2
		C-11053.4,3690-11056.8,3691.3-11060.2,3691.2z M-11104.5,3769c-14.4-0.1-26-12-25.9-26.4c0,0,0,0,0,0
		c0.2-14.3,11.8-25.9,26.1-25.9h0.3l22.4,0.2v52.3L-11104.5,3769z M-11055.4,3795.7l26.1,0.3l0,35.7l-26.1-0.3V3795.7z
		 M-11101.3,3883.2c-3.4,0-6.5-1.4-8.9-3.8c-2.4-2.4-3.6-5.6-3.6-8.9l0-0.5c0-3.5,1.4-6.7,3.9-9.2c2.5-2.5,5.8-3.8,9.3-3.8l19,0.2
		v26.1L-11101.3,3883.2z M-11029.3,3940.9c0,7.2-5.9,13.1-13.1,13.1c-7.2,0-13.1-5.9-13.1-13.1v-31.1l26.1,0.3L-11029.3,3940.9z
		 M-11029.3,3883.9l-26.1-0.2v-26.1l26.1,0.3L-11029.3,3883.9z M-10981.9,3796.4c4.8,0,9.3,2,12.7,5.4c3.4,3.5,5.1,8,5,12.8
		c-0.2,9.7-8.2,17.4-17.9,17.4c-0.1,0-0.1,0-0.2,0l-20.9-0.2l0-35.7L-10981.9,3796.4z M-11055.4,3769.5v-52.4
		c8.6-1,16.5-4.8,22.8-11c1.2-1.2,2.3-2.4,3.3-3.7l0,67.4L-11055.4,3769.5z M-10856.9,3574.8c-7.4,7.4-17.2,11.5-27.8,11.5
		l-69.6,0.3c-7.2,0-13,5.9-13,13.1c0,7.2,5.9,13,13.1,13l45.3-0.2c-5.3,15.3-19.9,26.3-37,26.3l-83.4,0v-39.5
		c0-10.4,4.1-20.2,11.7-27.6c7.5-7.4,17.5-11.5,28-11.5l141.9,0C-10849.6,3565.6-10852.7,3570.6-10856.9,3574.8z"/>
</g>
<g>
	<path class="st13" d="M-11016.3,4578.7v298.2c0,14.3-11.6,25.8-25.8,25.8c-14.3,0-25.8-11.6-25.8-25.8v-298.1L-11016.3,4578.7z"/>
	<path class="st14" d="M-11042.1,4902.7c14.3,0,25.8-11.6,25.8-25.8v-298.2l-25.8,0V4902.7z"/>
	<path class="st13" d="M-11042.1,4591.3C-11042.1,4591.3-11042.1,4591.3-11042.1,4591.3l-95.4,0c-31.3,0-57.4-22.4-63.3-52
		c-16.2-0.7-31.3-7.3-42.8-18.9c-12.2-12.2-18.9-28.4-18.9-45.6c0-3.4,1.4-6.7,3.8-9.1c2.4-2.4,5.7-3.8,9.1-3.8h0l155.4,0.1
		c17.2,0,33.5,6.7,45.8,18.9c12.4,12.2,19.2,28.5,19.2,45.7v51.9c0,3.4-1.4,6.7-3.8,9.1
		C-11035.4,4589.9-11038.7,4591.3-11042.1,4591.3z"/>
	<path class="st14" d="M-11200.8,4539.3c5.9,29.6,32,52,63.3,52l95.4,0h0c3.4,0,6.7-1.4,9.1-3.8c2.4-2.4,3.8-5.7,3.8-9.1v-39.1
		H-11200.8z"/>
	<path class="st14" d="M-11042.1,4591.3V4488c1.9-2.5,4-4.9,6.3-7.2c12.3-12.2,28.6-18.9,45.8-18.9l155.4-0.1h0
		c3.4,0,6.7,1.4,9.1,3.8c2.4,2.4,3.8,5.7,3.8,9.1c0,17.2-6.7,33.4-18.9,45.6c-11.5,11.5-26.6,18.2-42.8,18.9
		c-5.9,29.6-32,52-63.3,52L-11042.1,4591.3C-11042.1,4591.3-11042.1,4591.3-11042.1,4591.3z"/>
	<path class="st15" d="M-11042.1,4539.3v52h0l95.4,0c31.3,0,57.4-22.4,63.3-52H-11042.1z"/>
	<path class="st16" d="M-10981.6,4696.6l-33.7,0c0,0,0,0,0,0l0,25.8l33.7,0c4.8,0,9.2,1.9,12.6,5.3c3.3,3.4,5.1,7.9,5.1,12.7
		c-0.1,9.6-8.1,17.4-17.7,17.4c0,0,0,0,0,0l-59.5-0.1v25.8l59.4,0.1h0.1c23.6,0,43.1-19.2,43.5-42.8c0.2-11.7-4.3-22.8-12.5-31.2
		C-10958.8,4701.3-10969.8,4696.6-10981.6,4696.6z"/>
	<path class="st16" d="M-11064.3,4643.1c-0.1,0-0.3,0-0.4,0l-14.2-0.2c-18-0.2-32.6-15-32.6-33c0-8.9,3.5-17.2,9.8-23.5
		c6.3-6.2,14.7-9.6,23.6-9.5l14.2,0.2c17.9,0.2,32.6,15,32.6,33c0,8.9-3.5,17.2-9.8,23.5
		C-11047.4,4639.7-11055.6,4643.1-11064.3,4643.1z"/>
	<path d="M-10823.1,4464c-2.5-2.5-5.8-3.8-9.2-3.8c0,0,0,0,0,0l-157.2,0.1c-17.4,0-33.9,6.8-46.4,19.1c-2.3,2.3-4.4,4.7-6.4,7.3
		c-1.9-2.5-4-5-6.4-7.3c-12.5-12.3-28.9-19.1-46.4-19.1l-157.2-0.1c0,0,0,0,0,0c-3.5,0-6.8,1.4-9.2,3.8c-2.5,2.5-3.8,5.8-3.8,9.2
		c0,17.4,6.8,33.8,19.1,46.2c11.7,11.7,27,18.4,43.3,19.1c5.9,29.9,32.4,52.6,64,52.6l25.1,0c-1.5,4.1-2.2,8.6-2.2,13.1
		c0,4.7,0.8,9.2,2.4,13.4c-24.2,4.4-42.7,25.4-42.9,50.9v0c-0.1,14,5.2,27.1,14.9,37.1c9.8,10,22.8,15.5,36.8,15.7l23.2,0.2v35.7
		l-18.8-0.2c-10.5-0.1-20.3,3.9-27.8,11.2c-7.5,7.3-11.7,17.1-11.8,27.6l0,0.5c-0.2,21.4,17,38.9,38.4,39.1l20,0.2v31.3
		c0,21.6,17.6,39.2,39.2,39.2c21.6,0,39.2-17.6,39.2-39.2l0-30.6l11.4,0.1c3.9,0,7.6,1.6,10.3,4.4c2.7,2.8,4.2,6.5,4.2,10.4l0,5
		c-0.1,7.2,5.7,13.1,12.9,13.2h0.1c7.2,0,13-5.8,13.1-12.9l0-4.9c0.1-10.9-4-21.2-11.7-29c-7.6-7.8-17.8-12.1-28.7-12.2l-11.6-0.1
		l0-26.1l20.6,0.2h0.4c23.7,0,43.4-19.2,44-42.9c0.3-11.9-4.1-23.1-12.4-31.6c-8.3-8.5-19.3-13.3-31.2-13.4l-21.5-0.2l0-105l57.4,0
		c31.7,0,58.1-22.7,64-52.6c16.4-0.7,31.7-7.4,43.3-19.1c12.3-12.3,19.1-28.7,19.1-46.2
		C-10819.3,4469.8-10820.7,4466.5-10823.1,4464z M-11175.8,4538.7l45.3,0.2h0.1c7.2,0,13-5.8,13.1-13c0-7.2-5.8-13.1-13-13.1
		l-69.7-0.3c-10.5,0-20.3-4.1-27.7-11.5c-4.2-4.2-7.3-9.2-9.2-14.6l141.9,0c10.5,0,20.5,4.1,28,11.5c7.5,7.4,11.7,17.2,11.7,27.6
		v39.5l-83.4,0C-11155.9,4565-11170.5,4554-11175.8,4538.7z M-11060.2,4617.4l-16.8-0.2c-7-0.1-12.8-5.9-12.8-12.9
		c0-3.5,1.4-6.8,3.9-9.2c2.4-2.4,5.7-3.7,9.1-3.7c0.1,0,0.1,0,0.2,0l16.8,0.2c7,0.1,12.8,5.9,12.8,13c0,3.5-1.4,6.8-3.8,9.2
		C-11053.4,4616.1-11056.8,4617.4-11060.2,4617.4z M-11104.5,4695.2c-14.4-0.1-26-12-25.9-26.4c0,0,0,0,0,0
		c0.2-14.3,11.8-25.9,26.1-25.9h0.3l22.4,0.2v52.3L-11104.5,4695.2z M-11055.4,4721.8l26.1,0.3l0,35.7l-26.1-0.3V4721.8z
		 M-11101.3,4809.4c-3.4,0-6.5-1.4-8.9-3.8s-3.6-5.6-3.6-8.9l0-0.5c0-3.5,1.4-6.7,3.9-9.2c2.5-2.5,5.8-3.8,9.3-3.8l19,0.2v26.1
		L-11101.3,4809.4z M-11029.3,4867c0,7.2-5.9,13.1-13.1,13.1c-7.2,0-13.1-5.9-13.1-13.1v-31.1l26.1,0.3L-11029.3,4867z
		 M-11029.3,4810.1l-26.1-0.2v-26.1l26.1,0.3L-11029.3,4810.1z M-10981.9,4722.5c4.8,0,9.3,2,12.7,5.4c3.4,3.5,5.1,8,5,12.8
		c-0.2,9.7-8.2,17.4-17.9,17.4c-0.1,0-0.1,0-0.2,0l-20.9-0.2l0-35.7L-10981.9,4722.5z M-11055.4,4695.7v-52.4
		c8.6-1,16.5-4.8,22.8-11c1.2-1.2,2.3-2.4,3.3-3.7l0,67.4L-11055.4,4695.7z M-10856.9,4501c-7.4,7.4-17.2,11.5-27.8,11.5l-69.6,0.3
		c-7.2,0-13,5.9-13,13.1c0,7.2,5.9,13,13.1,13l45.3-0.2c-5.3,15.3-19.9,26.3-37,26.3l-83.4,0v-39.5c0-10.4,4.1-20.2,11.7-27.6
		c7.5-7.4,17.5-11.5,28-11.5l141.9,0C-10849.6,4491.8-10852.7,4496.8-10856.9,4501z"/>
</g>
<rect x="-10756.9" y="1838.8" style="fill:none;" width="1853.6" height="762.9"/>
<text transform="matrix(1 0 0 1 -10756.9111 2220.8198)" style="font-family:'AgencyFB-Bold'; font-size:500px;">hermes</text>
<rect x="-7866.2" y="429.6" style="fill:none;" width="1853.6" height="762.9"/>
<text transform="matrix(1 0 0 1 -7866.2139 811.5712)" style="font-family:'AgencyFB-Bold'; font-size:500px;">hermes</text>
<rect x="-2647.7" y="1192.5" style="fill:none;" width="1853.6" height="762.9"/>
<text transform="matrix(1 0 0 1 -2647.7007 1560.4647)" style="fill:#C22021; font-family:'CenturyGothic'; font-size:500px;">hermes</text>
<rect x="-10756.9" y="2713.3" style="fill:none;" width="2227.4" height="762.9"/>
<text transform="matrix(1 0 0 1 -10756.9111 3095.3232)" style="font-family:'AgencyFB-Bold'; font-size:500px;">hermes</text>
<rect x="-10756.9" y="3585.8" style="fill:none;" width="1702.5" height="762.9"/>
<text transform="matrix(1 0 0 1 -10756.9111 3967.8267)" style="font-family:'AgencyFB-Bold'; font-size:500px;">hermes</text>
<rect x="-10756.9" y="4498.6" style="fill:none;" width="1994.6" height="683.1"/>
<text transform="matrix(1 0 0 1 -10756.9111 4865.1372)" style="font-family:'Kegger'; font-size:500px;">hermes</text>
<rect x="-8376.2" y="1789.2" style="fill:none;" width="1994.6" height="683.1"/>
<text transform="matrix(1 0 0 1 -8376.1797 2144.1567)" style="font-family:'MarketFreshBoldAllCaps'; font-size:500px;">hermes</text>
<g>
	<g>
		<path class="st8" d="M-8445.5,2623.3h-359.7c-13.1,0-23.7-10.6-23.7-23.7l0,0c0-4.4,3.6-8,8-8h391.1c4.4,0,8,3.6,8,8l0,0
			C-8421.8,2612.7-8432.4,2623.3-8445.5,2623.3z"/>
	</g>
	<g>
		<path class="st9" d="M-8421.8,2599.6v0.1c0,13-10.6,23.6-23.6,23.6h-13.3c3,1.1,5.1,4,5.1,7.4v0.1c0,13-10.6,23.6-23.6,23.6
			h-296.3c-13,0-23.6-10.6-23.6-23.6v-0.1c0-4.4,3.6-8,8-8h324.8c10.6-2.3,18.6-11.7,18.6-23.1v-0.1c0-4.4-3.6-8-8-8h23.9
			C-8425.3,2591.7-8421.8,2595.2-8421.8,2599.6z"/>
	</g>
	<g>
		<g>
			<path class="st10" d="M-8453.6,2630.8v0.1c0,13-10.6,23.6-23.6,23.6h-13.2c2.9,1.2,4.9,4,4.9,7.4v0.1c0,13-10.6,23.6-23.6,23.6
				h-232.7c-13,0-23.6-10.6-23.6-23.6v-0.1c0-4.4,3.6-8,8-8h261.5c10.5-2.4,18.3-11.8,18.3-23v-0.1c0-4.4-3.6-8-8-8h23.9
				C-8457.1,2622.8-8453.6,2626.4-8453.6,2630.8z"/>
		</g>
		<g>
			<path class="st10" d="M-8602.6,2607.3l-14.4,295.4c-0.2,4.5-3.9,8-8.3,8s-8.1-3.5-8.3-8l-14.4-295.4c-0.6-13,9.7-23.9,22.7-23.9
				C-8612.3,2583.4-8602,2594.3-8602.6,2607.3z M-8625.3,2560.8c15.7,0,28.5-12.8,28.5-28.6c0-15.8-12.8-28.6-28.5-28.6
				s-28.5,12.8-28.5,28.6C-8653.8,2548-8641,2560.8-8625.3,2560.8z"/>
		</g>
	</g>
	<g>
		<path class="st11" d="M-8485.4,2661.8v0.1c0,13-10.6,23.6-23.6,23.6h-23.9c13,0,23.6-10.6,23.6-23.6v-0.1c0-4.4-3.6-8-8-8h23.9
			C-8488.9,2653.9-8485.4,2657.4-8485.4,2661.8z M-8625.3,2583.4c-2.8,0-5.5,0.5-8,1.5c8.9,3.4,15.2,12.3,14.7,22.5l-14.4,295.4
			c0,0.7-0.1,1.3-0.3,1.9c1,3.5,4.2,6.1,8,6.1c4.5,0,8.1-3.5,8.3-8l14.4-295.4C-8602,2594.3-8612.3,2583.4-8625.3,2583.4z
			 M-8625.3,2503.6c-2.8,0-5.5,0.4-8,1.2c11.8,3.5,20.5,14.4,20.5,27.4c0,13-8.6,24-20.5,27.4c2.5,0.7,5.2,1.2,8,1.2
			c15.7,0,28.5-12.8,28.5-28.6C-8596.8,2516.4-8609.6,2503.6-8625.3,2503.6z"/>
	</g>
	<g>
		<path d="M-8566.8,2648.2c-11.4,0-20.6-9.3-20.6-20.6s9.3-20.6,20.6-20.6c11.4,0,20.6,9.3,20.6,20.6S-8555.4,2648.2-8566.8,2648.2z
			 M-8566.8,2619.2c-4.6,0-8.4,3.7-8.4,8.4s3.7,8.4,8.4,8.4c4.6,0,8.4-3.7,8.4-8.4S-8562.2,2619.2-8566.8,2619.2z"/>
	</g>
	<g>
		<path d="M-8722.9,2679.9c-11.4,0-20.6-9.3-20.6-20.6c0-11.4,9.3-20.6,20.6-20.6c11.4,0,20.6,9.3,20.6,20.6
			C-8702.3,2670.6-8711.6,2679.9-8722.9,2679.9z M-8722.9,2650.9c-4.6,0-8.4,3.7-8.4,8.4c0,4.6,3.7,8.4,8.4,8.4
			c4.6,0,8.4-3.7,8.4-8.4C-8714.6,2654.6-8718.3,2650.9-8722.9,2650.9z"/>
	</g>
	<g>
		<path d="M-8625.3,2571.2c19.1,0,34.6-15.6,34.6-34.7c0-19.2-15.5-34.7-34.6-34.7s-34.6,15.6-34.6,34.7
			C-8659.9,2555.6-8644.4,2571.2-8625.3,2571.2z M-8625.3,2514c12.3,0,22.3,10.1,22.3,22.5c0,12.4-10,22.5-22.3,22.5
			s-22.3-10.1-22.3-22.5C-8647.7,2524.1-8637.6,2514-8625.3,2514z M-8689.3,2768.7c-1.2,1.2-2.8,1.8-4.4,1.8c-1.6,0-3.1-0.6-4.3-1.8
			c-5.8-5.7-9-13.3-9-21.5c0-16.6,13.5-30.1,30-30.1c3.4,0,6.1,2.8,6.1,6.1c0,3.4-2.8,6.1-6.1,6.1c-9.8,0-17.7,8-17.7,17.8
			c0,4.8,1.9,9.3,5.3,12.7C-8687,2762.4-8686.9,2766.3-8689.3,2768.7z M-8576,2834.2c0.9,2.9,1.3,5.9,1.3,8.9c0,12.7-8,24.1-20,28.4
			c-0.7,0.2-1.4,0.4-2.1,0.4c-2.5,0-4.9-1.6-5.8-4.1c-1.1-3.2,0.5-6.7,3.7-7.8c7.1-2.5,11.8-9.3,11.8-16.8c0-1.8-0.3-3.6-0.8-5.3
			c-1-3.2,0.8-6.7,4.1-7.7C-8580.4,2829.1-8577,2831-8576,2834.2z M-8429.7,2589.8h-175.4c-5.4-5.3-12.5-8.2-20.2-8.2
			c-7.6,0-14.8,2.9-20.2,8.3c-0.2,0-0.3,0-0.5,0h-174.9c-7.8,0-14.1,6.3-14.1,14.1v0.1c0,16.4,13.3,29.7,29.7,29.7h2.2
			c-0.1,0.6-0.1,1.2-0.1,1.8v0.1c0,16.4,13.3,29.7,29.7,29.7h2.2c-0.1,0.6-0.1,1.2-0.1,1.8v0.1c0,16.4,13.3,29.7,29.7,29.7h72.2
			c3.4,0,6.1-2.8,6.1-6.1c0-3.4-2.8-6.1-6.1-6.1h-72.2c-9.6,0-17.4-7.8-17.4-17.4v-0.1c0-0.9,0.7-1.7,1.6-1.8h16.4
			c0.1,0,0.3,0,0.4,0h0.7c3.4,0,6.1-2.8,6.1-6.1c0-3.4-2.8-6.1-6.1-6.1h-17.2c-0.2,0-0.4,0-0.7,0h-15.5c-9.6,0-17.4-7.8-17.4-17.4
			v-0.1c0-1,0.8-1.8,1.8-1.8h111.3c3.4,0,6.1-2.8,6.1-6.1c0-3.4-2.8-6.1-6.1-6.1h-102.9c-0.2,0-0.3,0-0.5,0h-24.1
			c-9.6,0-17.4-7.8-17.4-17.4v-0.1c0-1,0.8-1.8,1.8-1.8h167.9c-0.9,3.1-1.4,6.4-1.2,9.8l2,41.2h-33.7c-3.4,0-6.1,2.8-6.1,6.1
			s2.8,6.1,6.1,6.1h34.3l4.8,99.7h-15.2c-16.5,0-30,13.5-30,30.1c0,8.5,3.6,16.6,9.8,22.3c2.5,2.3,6.4,2.1,8.7-0.4
			c2.3-2.5,2.1-6.4-0.4-8.7c-3.7-3.4-5.8-8.2-5.8-13.2c0-9.8,7.9-17.8,17.7-17.8h15.8l1.7,35.6h-1.6c-16.5,0-30,13.5-30,30.1
			c0,12.7,8,24.1,20,28.4c3.2,1.1,6.7-0.5,7.8-3.7c1.1-3.2-0.5-6.7-3.7-7.8c-7.1-2.5-11.8-9.3-11.8-16.8c0-9.8,7.9-17.8,17.7-17.8
			h2.2l4,82c0.4,7.7,6.7,13.8,14.5,13.8c7.7,0,14.1-6.1,14.5-13.8l4-82h18.1c16.5,0,30-13.5,30-30.1c0-1.8-0.2-3.6-0.5-5.3
			c-0.6-3.3-3.8-5.6-7.1-5c-3.3,0.6-5.6,3.8-5,7.1c0.2,1,0.3,2.1,0.3,3.2c0,9.8-7.9,17.8-17.7,17.8h-17.5l1.7-35.6h30.9
			c16.5,0,30-13.5,30-30.1c0-16.6-13.5-30.1-30-30.1c-3.4,0-6.1,2.8-6.1,6.1c0,3.4,2.8,6.1,6.1,6.1c9.8,0,17.7,8,17.7,17.8
			c0,9.8-7.9,17.8-17.7,17.8h-30.3l4.8-99.7h63.8c3.4,0,6.1-2.8,6.1-6.1c0-3.4-2.7-6.1-6.1-6.1h-63.2l2-41.2
			c0.2-3.4-0.2-6.7-1.2-9.8h167.9c1,0,1.8,0.8,1.8,1.8v0.1c0,9.6-7.8,17.4-17.4,17.4h-17.8c-0.2,0-0.3,0-0.5,0h-86.3
			c-3.4,0-6.1,2.8-6.1,6.1c0,3.4,2.7,6.1,6.1,6.1h88.3c1,0,1.8,0.8,1.8,1.8v0.1c0,9.6-7.8,17.4-17.4,17.4h-15.5c-0.2,0-0.4,0-0.7,0
			h-18.5c-3.4,0-6.1,2.8-6.1,6.1s2.7,6.1,6.1,6.1h0.6c0.1,0,0.3,0,0.4,0h17.7c0.9,0.1,1.6,0.9,1.6,1.8v0.1c0,9.6-7.8,17.4-17.4,17.4
			h-73.4c-3.4,0-6.1,2.8-6.1,6.1c0,3.4,2.7,6.1,6.1,6.1h73.4c16.4,0,29.7-13.3,29.7-29.7v-0.1c0-0.6,0-1.2-0.1-1.8h2.2
			c16.4,0,29.7-13.3,29.7-29.7v-0.1c0-0.6,0-1.2-0.1-1.8h2.2c16.4,0,29.7-13.3,29.7-29.7v-0.1
			C-8415.6,2596.1-8422,2589.8-8429.7,2589.8z M-8623.1,2906.7c-0.1,1.2-1,2.1-2.2,2.1c-1.2,0-2.1-0.9-2.2-2.1l-4-81.4h12.3
			L-8623.1,2906.7z M-8618.6,2813h-13.5l-1.7-35.6h17L-8618.6,2813z M-8616.2,2765.1h-18.2l-7.5-153.8c-0.2-4.6,1.4-9,4.6-12.3
			c3.2-3.3,7.4-5.1,12-5.1c4.6,0,8.8,1.8,12,5.1c3.2,3.3,4.8,7.7,4.6,12.3L-8616.2,2765.1z"/>
	</g>
</g>
<rect x="-8376.2" y="2541.7" style="fill:none;" width="1994.6" height="683.1"/>
<text transform="matrix(1 0 0 1 -8376.1797 2914.8359)" style="font-family:'Searocks-Regular'; font-size:700px;">hermes</text>
<rect x="-8376.2" y="3579.4" style="fill:none;" width="1994.6" height="683.1"/>
<text transform="matrix(1 0 0 1 -8376.1797 3946.8796)" style="font-family:'Signika-Regular'; font-size:500px;">hermes</text>
<image style="overflow:visible;" width="441" height="506" xlink:href="AFFB9F97.jpg"  transform="matrix(2.4145 0 0 2.4145 -6052.7549 1590.0958)">
</image>
<image style="overflow:visible;" width="440" height="503" xlink:href="AFFB9F92.jpg"  transform="matrix(3.0334 0 0 3.0334 -6197.2969 2713.3274)">
</image>
<image style="overflow:visible;" width="578" height="632" xlink:href="AFFB9F93.jpg"  transform="matrix(1.8147 0 0 1.8147 -5968.0381 4444.0913)">
</image>
<g>
	<g>
		<path class="st5" d="M-143.9,29.8c-4.5,0-8.2-3.7-8.2-8.2c0-4.5,3.7-8.2,8.2-8.2c4.5,0,8.2,3.7,8.2,8.2
			C-135.7,26.1-139.4,29.8-143.9,29.8z M-143.9,15.5c-3.4,0-6.1,2.8-6.1,6.1c0,3.4,2.8,6.1,6.1,6.1s6.1-2.8,6.1-6.1
			C-137.7,18.2-140.5,15.5-143.9,15.5z"/>
	</g>
	<g>
		<rect x="-144.9" y="29.1" class="st5" width="2" height="7.7"/>
	</g>
	<g>
		<rect x="-147.2" y="32.4" class="st5" width="6.6" height="2"/>
	</g>
	<path class="st5" d="M-137.8,8.4c-0.5,2.9-3,5.1-6,5.1c-3,0-5.5-2.2-6-5.1l-2,0.2c0.6,3.9,4,6.9,8.1,6.9c4.1,0,7.4-3,8.1-6.9
		L-137.8,8.4z"/>
</g>
<path class="st17" d="M56,23.9l-2-2.5c-0.3-0.3-0.7-0.5-1.1-0.5c-0.3,0-0.6,0.1-0.8,0.2C50.2,22.3,48,23,45.7,23
	c-3.1,0-6-1.2-8.2-3.4C33.6,15.7,33,9.6,36,5c0.4-0.6,0.3-1.5-0.3-1.9l-2.5-2c-0.3-0.2-0.6-0.3-0.9-0.3c-0.5,0-0.9,0.2-1.2,0.6
	c-2.7,3.9-3.6,8.7-2.7,13.3c-1.1-0.2-2.2-0.3-3.3-0.3c-4.8,0-9.2,1.8-12.6,5.2c-6.1,6.1-6.9,15.8-2,22.8L7.7,45l-2.3-2.3
	c-0.3-0.3-0.6-0.4-1-0.4c-0.4,0-0.8,0.2-1,0.4L1.1,45c-0.3,0.3-0.4,0.6-0.4,1c0,0.4,0.2,0.8,0.4,1l2.3,2.3L1,51.7
	c-0.3,0.3-0.4,0.6-0.4,1c0,0.4,0.2,0.8,0.4,1l2.3,2.3c0.3,0.3,0.6,0.4,1,0.4c0.4,0,0.8-0.2,1-0.4l2.4-2.4L10,56
	c0.3,0.3,0.6,0.4,1,0.4s0.8-0.2,1-0.4l2.3-2.3c0.3-0.3,0.4-0.6,0.4-1c0-0.4-0.2-0.8-0.4-1l-2.3-2.3l2.6-2.6c3,2.1,6.6,3.2,10.2,3.2
	c0,0,0,0,0,0c4.7,0,9.2-1.8,12.6-5.2c4.2-4.2,6-10.2,4.9-15.9c1.1,0.2,2.2,0.3,3.4,0.3c3.6,0,7-1.1,10-3.1c0.3-0.2,0.6-0.6,0.6-1
	C56.4,24.7,56.3,24.3,56,23.9z M24.9,43.8c-3.1,0-6-1.2-8.2-3.4c-4.5-4.5-4.5-11.9,0-16.4c2.2-2.2,5.1-3.4,8.2-3.4s6,1.2,8.2,3.4
	c4.5,4.5,4.5,11.9,0,16.4C30.9,42.6,28,43.8,24.9,43.8z"/>
<g>
	<g>
		<path class="st18" d="M-184.2,29.8c-4.5,0-8.2-3.7-8.2-8.2c0-4.5,3.7-8.2,8.2-8.2c4.5,0,8.2,3.7,8.2,8.2
			C-176,26.1-179.7,29.8-184.2,29.8z M-184.2,15.5c-3.4,0-6.1,2.8-6.1,6.1c0,3.4,2.8,6.1,6.1,6.1s6.1-2.8,6.1-6.1
			C-178.1,18.2-180.8,15.5-184.2,15.5z"/>
	</g>
	<g>
		<rect x="-185.2" y="29.1" class="st18" width="2" height="7.7"/>
	</g>
	<g>
		<rect x="-187.5" y="32.4" class="st18" width="6.6" height="2"/>
	</g>
	<path class="st18" d="M-178.2,8.4c-0.5,2.9-3,5.1-6,5.1c-3,0-5.5-2.2-6-5.1l-2,0.2c0.6,3.9,4,6.9,8.1,6.9c4.1,0,7.4-3,8.1-6.9
		L-178.2,8.4z"/>
</g>
</svg>
